<svg width="270" height="38" viewBox="0 0 270 38" fill="none" xmlns="http://www.w3.org/2000/svg">
<path d="M38.6369 28.283L37.3971 26.0845C28.2386 36.8171 9.63729 33.0853 9.63729 33.0853L1.71096 28.9196L0.111714 32.0606V32.0604C-0.0125885 32.3079 -0.0340567 32.5942 0.0518146 32.8573C0.137687 33.1205 0.324012 33.3392 0.5705 33.4656L7.82307 37.2676C11.435 38.0611 31.4915 40.1068 38.5004 30.296C38.7058 30.0052 38.827 29.6638 38.8511 29.3087C38.8752 28.9538 38.801 28.5989 38.6369 28.2832L38.6369 28.283Z" fill="#6FAE3D"/>
<path d="M36.4338 24.2038L23.6636 1.79605C23.446 1.36084 23.0352 1.05417 22.556 0.969623L16.8404 0.0231727C16.5099 -0.0348717 16.1691 0.0168116 15.8706 0.170538C15.5722 0.324261 15.3321 0.571549 15.1874 0.87449L2.70215 26.9109L10.1908 30.8825C29.681 33.705 36.4342 24.2037 36.4342 24.2037L36.4338 24.2038ZM29.0693 20.071L29.069 20.0712C29.1488 19.8608 29.3505 19.7217 29.5753 19.7217C29.8003 19.7217 30.002 19.8608 30.0818 20.0712C30.5819 21.0466 31.148 22.6045 30.2347 23.4105V23.4103C30.0547 23.5754 29.8194 23.6668 29.5753 23.6668C29.3314 23.6668 29.0961 23.5754 28.9161 23.4103C27.9988 22.6252 28.5692 21.067 29.069 20.0877L29.0693 20.071ZM23.7462 13.2147C23.826 13.0042 24.0274 12.8651 24.2524 12.8651C24.4774 12.8651 24.6789 13.0042 24.7587 13.2147C25.2588 14.19 25.8249 15.7479 24.9116 16.5539C24.7316 16.7188 24.4965 16.8105 24.2524 16.8105C24.0083 16.8105 23.7732 16.7188 23.5933 16.5539C22.6799 15.7357 23.2461 14.1776 23.7462 13.2147ZM18.8819 21.7611C18.9617 21.5507 19.1631 21.4116 19.3881 21.4116C19.6132 21.4116 19.8149 21.5507 19.8944 21.7611C20.3945 22.7365 20.9606 24.2944 20.0473 25.1004C19.8676 25.2653 19.6322 25.357 19.3881 25.357C19.144 25.357 18.9089 25.2653 18.729 25.1004C17.8116 24.2987 18.3818 22.7201 18.8819 21.7611Z" fill="#FF1A41"/>
<path d="M81.3991 31.4556C80.1558 31.4556 79.112 31.2445 78.2676 30.8223C77.4231 30.3766 76.7898 29.8136 76.3676 29.1334C75.9454 28.4531 75.5818 27.7025 75.2769 26.8815C74.9954 26.0606 74.6904 25.2396 74.362 24.4186C74.0337 23.5741 73.6349 22.8118 73.1658 22.1316C72.6966 21.4513 71.9929 20.9001 71.0547 20.4779C70.1164 20.0322 68.9553 19.8094 67.5713 19.8094C65.6714 19.8094 64.217 19.9853 63.2084 20.3371V24.9112C63.2084 27.5383 63.4078 29.5556 63.8065 30.963H57.051C57.4967 29.5087 57.7195 27.5383 57.7195 25.0519V12.2446C57.7195 9.75817 57.4967 7.78781 57.051 6.3335H63.8065C63.4078 7.85818 63.2084 9.71126 63.2084 11.8927V15.7983H68.4158C70.9022 15.7983 72.8139 15.3174 74.1509 14.3557C75.5114 13.394 76.1917 12.01 76.1917 10.2038C76.1917 8.72608 75.7929 7.43596 74.9954 6.3335H81.1176C81.7744 7.48287 82.1028 8.78472 82.1028 10.239C82.1028 12.7958 81.2114 14.6723 79.4287 15.8686C77.6694 17.0415 74.9954 17.6279 71.4065 17.6279H69.9991V17.9797H70.5269C71.6997 17.9797 72.7318 18.1205 73.6232 18.402C74.538 18.66 75.2651 19.0118 75.8046 19.4575C76.3676 19.8797 76.8485 20.3606 77.2472 20.9001C77.6694 21.4161 78.033 21.9439 78.338 22.4834C78.6663 22.9995 78.983 23.4803 79.288 23.926C79.5929 24.3482 79.9565 24.7001 80.3787 24.9815C80.8244 25.2396 81.3287 25.3686 81.8916 25.3686C82.8534 25.3686 83.5688 25.1927 84.0379 24.8408C84.5071 24.489 84.9527 23.9025 85.375 23.0816L85.5861 29.45C85.1873 30.0365 84.6126 30.5173 83.862 30.8926C83.1114 31.2679 82.2904 31.4556 81.3991 31.4556Z" fill="black"/>
<path d="M96.0841 31.4556C93.2928 31.4556 91.123 30.9044 89.5749 29.8019C88.0268 28.6994 87.2527 27.2451 87.2527 25.439C87.2527 23.6328 88.015 22.1902 89.5397 21.1112C91.0878 20.0322 93.281 19.4927 96.1193 19.4927C98.0662 19.4927 99.7551 19.8328 101.186 20.5131C102.64 21.1698 103.661 22.0026 104.247 23.0112H104.634V20.689C104.634 17.5458 102.324 15.9742 97.7026 15.9742C94.4891 15.9742 91.8267 16.5606 89.7156 17.7334V14.2501C92.3428 13.3353 95.31 12.8779 98.6174 12.8779C106.077 12.8779 109.806 15.3057 109.806 20.1612V25.5797C109.806 27.9723 110.017 29.7667 110.44 30.963H104.106C104.458 30.3062 104.634 29.3914 104.634 28.2186V27.7963H104.282C103.719 28.8754 102.711 29.755 101.256 30.4352C99.802 31.1155 98.0779 31.4556 96.0841 31.4556ZM98.3008 28.2889C99.9897 28.2889 101.432 28.0309 102.629 27.5149C103.848 26.9988 104.458 26.2717 104.458 25.3334C104.458 24.489 103.837 23.797 102.593 23.2575C101.374 22.6945 99.9427 22.413 98.3008 22.413C96.4242 22.413 94.9699 22.6711 93.9378 23.1871C92.9057 23.7032 92.3897 24.4186 92.3897 25.3334C92.3897 26.2482 92.9057 26.9754 93.9378 27.5149C94.9934 28.0309 96.4477 28.2889 98.3008 28.2889Z" fill="black"/>
<path d="M121.106 30.963C120.965 29.9309 120.437 28.4649 119.522 26.5649L115.054 18.0853C114.045 16.0915 113.083 14.5199 112.169 13.3705H118.713C118.877 14.3557 119.288 15.4816 119.944 16.7483L123.92 24.7001C124.413 25.6618 124.777 26.4828 125.011 27.163H125.293C125.504 26.6235 125.867 25.7908 126.383 24.6649L130.394 16.7483C131.004 15.552 131.403 14.426 131.591 13.3705H137.994C137.103 14.473 136.13 16.0446 135.074 18.0853L130.641 26.6001C129.726 28.3828 129.186 29.8371 129.022 30.963H121.106Z" fill="black"/>
<path d="M149.792 31.4556C147.024 31.4556 144.878 30.7519 143.353 29.3445C141.829 27.9136 141.066 25.9433 141.066 23.4334V18.6834C141.066 16.6427 140.855 14.8717 140.433 13.3705H147.012C146.59 14.8717 146.379 16.5723 146.379 18.4723V22.3427C146.379 23.9612 146.872 25.2278 147.857 26.1427C148.866 27.0575 150.214 27.5149 151.903 27.5149C153.616 27.5149 155.105 26.9402 156.372 25.7908C157.638 24.618 158.272 23.2106 158.272 21.5686V18.4723C158.272 16.197 158.061 14.4964 157.638 13.3705H164.253C163.831 14.7544 163.62 16.4199 163.62 18.3668V25.7204C163.62 27.8081 163.831 29.5556 164.253 30.963H157.709C158.084 30.0716 158.272 28.9105 158.272 27.4797V26.213H157.92C157.333 27.9254 156.301 29.2272 154.824 30.1186C153.346 31.0099 151.669 31.4556 149.792 31.4556Z" fill="black"/>
<path d="M169.368 30.963C169.791 29.5556 170.002 27.8784 170.002 25.9315V18.6131C170.002 16.4785 169.791 14.731 169.368 13.3705H175.913C175.514 14.2384 175.315 15.3878 175.315 16.8186V18.1205H175.667C176.276 16.4081 177.32 15.1063 178.798 14.2149C180.276 13.3236 181.941 12.8779 183.794 12.8779C186.562 12.8779 188.708 13.5933 190.233 15.0242C191.781 16.4316 192.555 18.3785 192.555 20.8649V25.6149C192.555 27.7729 192.766 29.5556 193.189 30.963H186.609C187.031 29.4383 187.242 27.726 187.242 25.826V21.9908C187.242 20.3723 186.738 19.1057 185.729 18.1908C184.744 17.2526 183.407 16.7834 181.718 16.7834C180.006 16.7834 178.505 17.3699 177.215 18.5427C175.948 19.6921 175.315 21.0877 175.315 22.7297V25.826C175.315 28.0075 175.538 29.7198 175.983 30.963H169.368Z" fill="black"/>
<path d="M222.026 31.4556C217.874 31.4556 214.625 30.4704 212.28 28.5C209.957 26.5297 208.796 23.7618 208.796 20.1964V12.2446C208.796 9.80508 208.585 7.83472 208.163 6.3335H214.883C214.484 7.88164 214.285 9.87545 214.285 12.3149V19.3871C214.285 21.6155 214.989 23.3865 216.396 24.7001C217.827 26.0136 219.704 26.6704 222.026 26.6704C224.348 26.6704 226.225 26.0136 227.655 24.7001C229.086 23.363 229.802 21.5921 229.802 19.3871V12.3149C229.802 9.82854 229.591 7.83472 229.168 6.3335H235.924C235.502 7.83472 235.291 9.80508 235.291 12.2446V20.1964C235.291 23.7149 234.129 26.471 231.807 28.4649C229.508 30.4587 226.248 31.4556 222.026 31.4556Z" fill="black"/>
<path d="M236.748 30.963C237.827 29.3914 239 27.421 240.266 25.0519L246.951 12.2446C247.937 10.2742 248.605 8.30386 248.957 6.3335H257.577C258.023 8.58534 258.656 10.544 259.477 12.2094L266.233 25.0519C267.359 27.2568 268.52 29.2272 269.716 30.963H262.82C262.679 30.0013 262.151 28.6994 261.236 27.0575L260.216 25.1927H246.248L245.227 27.0926C244.242 29.1803 243.714 30.4704 243.644 30.963H236.748ZM248.288 21.0056H258.175L254.903 14.7075C254.364 13.5347 253.859 12.2446 253.39 10.8372H253.074C252.534 12.3619 252.018 13.6637 251.525 14.7427L248.288 21.0056Z" fill="black"/>
</svg>
