<svg width="547" height="487" viewBox="0 0 547 487" fill="none" xmlns="http://www.w3.org/2000/svg">
<mask id="mask0_331_7244" style="mask-type:alpha" maskUnits="userSpaceOnUse" x="73" y="10" width="355" height="477">
<rect x="73.6416" y="10" width="353.717" height="477" fill="#D9D9D9"/>
</mask>
<g mask="url(#mask0_331_7244)">
<path fill-rule="evenodd" clip-rule="evenodd" d="M325.638 214.293C317.549 208.404 313.538 198.761 310.52 197.119C308.299 195.912 308.339 187.579 303.888 184.63C297.915 180.672 278.881 177.729 271.956 177.179C265.309 176.65 253.749 177.76 247.512 180.195C237.113 184.255 232.965 192 228.385 201.977C228.385 201.977 331.196 218.34 325.638 214.293Z" fill="white"/>
<path fill-rule="evenodd" clip-rule="evenodd" d="M174.777 221.174H339.149L396.043 271.805L421.296 484.612L385.378 495.8L163.448 499.511L94.1374 479.908L89.8127 331.777L174.777 221.174Z" fill="white"/>
<path fill-rule="evenodd" clip-rule="evenodd" d="M398.184 445.953C397.039 445.381 395.845 444.727 394.537 444.682C392.292 444.603 392.289 441.108 394.537 441.187C396.499 441.255 398.221 442.073 399.947 442.935C401.961 443.941 400.19 446.954 398.184 445.953M394.537 347.576C396.07 347.577 397.615 347.77 398.792 348.843C399.491 349.48 399.436 350.669 398.792 351.314C398.102 352.003 397.018 351.949 396.321 351.314C396.548 351.521 396.323 351.316 396.24 351.27C396.221 351.259 396.21 351.252 396.204 351.247C396.187 351.243 396.169 351.239 396.141 351.232C395.958 351.186 395.778 351.141 395.593 351.108C395.59 351.116 395.203 351.082 395.113 351.078C394.92 351.071 394.729 351.071 394.537 351.071C393.59 351.07 392.79 350.272 392.79 349.323C392.79 348.379 393.593 347.575 394.537 347.576M378.109 386.779C377.609 388.975 374.241 388.04 374.741 385.85C375.466 382.667 375.334 379.405 374.741 376.21C374.332 374.008 377.699 373.073 378.109 375.281C378.821 379.113 378.981 382.959 378.109 386.779M373.697 261.172C371.095 260.554 368.521 260.481 365.859 260.48C363.608 260.479 363.611 256.984 365.859 256.985C368.828 256.986 371.726 257.113 374.626 257.802C376.815 258.322 375.883 261.691 373.697 261.172M364.978 346.303C363.469 345.548 361.959 344.793 360.45 344.038C358.436 343.031 360.208 340.017 362.213 341.02L366.741 343.285C368.755 344.292 366.983 347.306 364.978 346.303M364.349 415.129C362.435 417.89 359.743 419.605 356.513 420.461C354.334 421.039 353.413 417.667 355.584 417.091C357.894 416.479 359.947 415.363 361.332 413.365C362.606 411.527 365.634 413.277 364.349 415.129M352.277 292.076C351.759 291.108 350.979 290.699 350.011 290.677C347.763 290.625 347.762 287.13 350.011 287.182C352.217 287.232 354.239 288.34 355.293 290.312C356.354 292.297 353.337 294.06 352.277 292.076M330.116 315.832C329.489 316.515 328.275 316.498 327.645 315.832C327.259 315.425 326.935 314.97 326.68 314.472C326.583 314.283 326.492 314.09 326.385 313.906C326.338 313.824 326.285 313.743 326.231 313.665C326.213 313.648 326.175 313.609 326.135 313.568C325.464 312.858 325.481 311.81 326.135 311.096C326.762 310.414 327.977 310.431 328.606 311.096C328.992 311.503 329.316 311.958 329.571 312.457C329.668 312.646 329.759 312.838 329.866 313.023C329.913 313.104 329.966 313.185 330.02 313.264C330.039 313.28 330.076 313.319 330.116 313.361C330.787 314.071 330.77 315.119 330.116 315.832M328.253 367.44C325.977 368.482 323.482 368.482 321.206 367.44C320.345 367.046 320.14 365.801 320.58 365.049C321.089 364.178 322.112 364.03 322.97 364.423C324.002 364.895 325.459 364.894 326.489 364.423C327.351 364.028 328.364 364.168 328.879 365.049C329.322 365.806 329.111 367.048 328.253 367.44M322.046 403.97C321.655 404.896 320.811 405.388 319.824 405.425C318.846 405.462 318.118 404.595 318.077 403.678C318.051 403.085 318.371 402.579 318.831 402.265C318.831 402.233 318.832 402.201 318.832 402.168C318.833 401.189 319.632 400.463 320.579 400.42C321.522 400.378 322.326 401.254 322.326 402.168C322.326 402.785 322.288 403.397 322.046 403.97M313.032 462.045C310.244 462.09 307.519 462.754 304.731 462.8C302.478 462.836 302.485 459.341 304.731 459.305C307.519 459.259 310.243 458.595 313.032 458.55C315.285 458.513 315.278 462.008 313.032 462.045M301.437 238.075C299.805 239.63 297.789 240.396 295.801 241.368C293.787 242.352 292.018 239.337 294.038 238.35C295.722 237.527 297.586 236.919 298.967 235.604C300.596 234.052 303.069 236.52 301.437 238.075M297.056 278.359C295.911 277.788 294.718 277.134 293.411 277.088C291.164 277.01 291.161 273.515 293.411 273.593C295.372 273.661 297.094 274.48 298.82 275.342C300.835 276.347 299.063 279.361 297.056 278.359M276.053 440.041C275.536 439.073 274.757 438.664 273.789 438.642C271.54 438.591 271.539 435.096 273.789 435.147C275.994 435.197 278.017 436.305 279.071 438.277C280.131 440.263 277.114 442.026 276.053 440.041M268.78 364.147C268.085 363.509 268.133 362.323 268.78 361.676C269.535 360.921 270.289 360.166 271.044 359.412C271.734 358.721 272.817 358.771 273.515 359.412C274.21 360.05 274.161 361.235 273.515 361.883C272.76 362.638 272.005 363.392 271.251 364.147C270.56 364.838 269.477 364.788 268.78 364.147M260.204 482.428C257.684 482.369 255.321 481.645 252.948 480.856C250.821 480.148 251.739 476.773 253.877 477.485C255.939 478.172 258.011 478.882 260.204 478.933C262.453 478.985 262.454 482.48 260.204 482.428M248.884 407.69C246.607 407.627 244.718 406.467 243.121 404.913C241.505 403.342 243.979 400.873 245.591 402.442C246.506 403.331 247.56 404.158 248.884 404.195C251.132 404.258 251.134 407.753 248.884 407.69M255.914 311.577C255.941 312.507 256.334 313.504 256.912 314.116C258.456 315.752 255.988 318.226 254.441 316.587C253.165 315.236 252.474 313.426 252.42 311.577C252.355 309.323 255.85 309.333 255.914 311.577M229.264 235.457C228.533 234.025 227.574 232.345 226.117 231.554C224.138 230.48 225.903 227.463 227.88 228.536C229.862 229.612 231.279 231.731 232.281 233.693C233.303 235.694 230.286 237.46 229.264 235.457M224.735 271.804C223.924 271.781 223.12 271.642 222.338 271.43C222.004 271.339 221.674 271.234 221.339 271.144C221.196 271.105 220.587 271.029 220.961 271.049C220.015 270.998 219.214 270.289 219.214 269.301C219.214 268.393 220.018 267.503 220.961 267.554C222.258 267.623 223.437 268.272 224.735 268.309C226.982 268.372 226.983 271.867 224.735 271.804M213.414 327.668H209.641C207.389 327.668 207.393 324.173 209.641 324.173H213.414C215.666 324.173 215.662 327.668 213.414 327.668M209.013 482.189C207.869 482.762 206.52 483.304 205.593 484.181C203.959 485.726 201.485 483.258 203.123 481.709C204.303 480.593 205.813 479.891 207.25 479.171C208.097 478.748 209.138 478.939 209.64 479.798C210.094 480.575 209.857 481.767 209.013 482.189M200.582 438.029C200.436 437.989 200.281 437.96 200.133 437.94C199.539 437.86 198.917 437.888 198.321 437.887C196.069 437.886 196.073 434.391 198.321 434.392C200.093 434.393 201.937 434.418 203.33 435.659C204.037 436.289 203.968 437.491 203.33 438.13C202.635 438.825 201.563 438.758 200.859 438.13C200.933 438.197 200.679 438.056 200.582 438.029M198.322 378.638C198.829 377.591 198.837 376.909 198.838 375.746C198.84 373.493 202.334 373.496 202.332 375.746C202.331 377.435 202.08 378.873 201.339 380.402C200.925 381.255 199.714 381.477 198.949 381.029C198.09 380.527 197.911 379.487 198.322 378.638M188.22 296.654C186.193 297.343 184.384 298.319 182.6 299.497C180.716 300.741 178.968 297.713 180.836 296.479C182.873 295.135 184.979 294.07 187.291 293.283C189.428 292.556 190.337 295.933 188.22 296.654M176.435 237.832C174.93 237.874 173.376 238.451 172.034 239.103C170.018 240.083 168.248 237.068 170.271 236.085C172.187 235.154 174.284 234.397 176.435 234.337C178.688 234.274 178.679 237.769 176.435 237.832M171.152 394.856C170.56 394.883 170.054 394.563 169.74 394.102C169.708 394.102 169.675 394.101 169.643 394.101C168.664 394.101 167.939 393.301 167.896 392.354C167.854 391.411 168.729 390.606 169.643 390.606C170.26 390.607 170.872 390.644 171.445 390.886C172.37 391.277 172.862 392.122 172.899 393.109C172.936 394.087 172.069 394.815 171.152 394.856M162.56 274.006C160.415 274.707 159.504 271.331 161.631 270.636C164.129 269.819 166.681 269.187 169.179 268.371C171.324 267.67 172.235 271.046 170.107 271.741C167.61 272.557 165.058 273.189 162.56 274.006M154.725 339.974C154.059 342.119 150.688 341.198 151.356 339.045C152 336.966 152.046 334.874 152.048 332.715C152.049 330.462 155.543 330.466 155.542 332.715C155.54 335.173 155.458 337.608 154.725 339.974M131.365 418.986C131.238 419.856 130.548 420.483 129.645 420.524C128.726 420.565 127.865 419.691 127.898 418.776C127.962 417.017 129.396 415.583 131.154 415.519C132.133 415.483 132.86 416.348 132.901 417.267C132.941 418.159 132.196 418.856 131.365 418.986M119.544 318.547C117.698 319.163 115.725 319.75 114.277 321.117C112.642 322.661 110.168 320.193 111.807 318.645C113.715 316.843 116.17 315.993 118.615 315.176C120.756 314.461 121.666 317.838 119.544 318.547M111.532 386.442C111.024 387.309 109.997 387.466 109.142 387.069C107.996 386.536 106.731 386.553 105.495 386.552C103.244 386.55 103.247 383.055 105.495 383.057C107.401 383.059 109.159 383.238 110.905 384.051C111.764 384.451 111.974 385.686 111.532 386.442M107.005 468.839C106.026 468.875 105.299 468.01 105.258 467.092C105.217 466.199 105.962 465.502 106.794 465.372C106.921 464.502 107.611 463.875 108.514 463.834C109.434 463.793 110.294 464.667 110.261 465.582C110.197 467.341 108.764 468.775 107.005 468.839M425.309 482.054C424.716 479.918 423.358 478.192 422.331 476.27C421.987 475.622 421.867 475.219 421.681 474.745C421.428 475.252 420.936 475.633 420.196 475.634C418.778 475.634 417.119 475.543 415.795 476.15C414.934 476.544 413.92 476.404 413.405 475.523C412.963 474.766 413.174 473.525 414.032 473.132C415.983 472.238 418.08 472.139 420.196 472.138C420.719 472.138 421.115 472.331 421.394 472.62C422.203 461.541 422.183 450.454 421.418 439.366C420.602 427.518 418.723 415.906 416.758 404.211C415.806 398.54 414.57 392.813 414.811 387.037C415.051 381.301 417.51 375.953 415.767 370.2C415.068 367.893 413.872 365.779 413.094 363.498C412.26 361.043 412.334 358.618 412.714 356.075C413.496 350.898 414.793 345.783 412.718 340.728C411.802 338.487 410.316 336.486 409.6 334.17C408.709 331.291 408.832 328.106 408.683 325.123C408.382 319.102 408.303 313.043 407.805 307.036C407.583 304.345 407.098 301.793 405.993 299.325C404.931 296.948 403.355 294.786 402.652 292.265C401.953 289.783 401.892 287.167 401.516 284.628C401.123 281.946 400.508 279.303 399.678 276.725C396.472 266.747 390.598 257.782 383.658 250.01C376.282 241.749 367.464 235.527 358.105 229.73C353.183 226.682 348.262 223.633 343.344 220.584C343.239 221.156 342.874 221.682 342.174 221.916C340.327 222.533 338.356 223.119 336.908 224.486C335.273 226.03 332.799 223.562 334.437 222.015C336.147 220.4 338.295 219.551 340.481 218.804C338.24 217.391 335.975 215.928 333.447 215.112C331.232 214.396 327.966 215.02 326.17 213.395C324.76 212.115 324.314 209.743 323.773 208.004C323.096 205.846 322.511 203.57 321.65 201.473C321.065 200.04 320.214 198.664 319.139 197.554C318.667 195.736 317.802 194.076 316.274 193.067C312.274 190.42 307.36 193.05 305.6 196.824C304.146 196.82 302.613 197.139 301.198 197.226C298.289 197.41 295.376 197.493 292.463 197.484C286.764 197.467 281.06 197.095 275.409 196.339C265.303 194.985 255.498 192.255 245.562 190.127C245.505 189.996 245.44 189.865 245.361 189.734C243.221 186.143 237.889 186.75 234.53 188.109C233.089 188.69 231.622 189.424 230.796 190.787C229.923 191.376 229.167 192.093 228.665 192.849C227.625 194.408 226.822 197.554 224.712 197.816C223.324 197.986 221.913 197.72 220.502 197.921C218.738 198.166 217.157 198.786 215.528 199.494C203.125 204.88 190.302 210.87 176.841 212.958C173.684 213.448 170.47 213.954 167.727 215.724C165.5 217.161 163.778 219.136 161.94 221.01C160.15 222.836 158.673 223.644 156.119 223.972C153.018 224.37 150.332 225.226 148.065 227.48C146.183 229.354 144.956 231.748 143.479 233.924C141.977 236.143 139.772 237.393 137.483 238.682C132.072 241.731 127.032 245.414 122.643 249.831C113.397 259.145 107.798 271.116 102.155 282.78C96.0542 295.397 90.3504 308.167 86.3936 321.641C82.5154 334.869 80.2094 348.478 79.1438 362.214C78.0214 376.626 77.8641 391.096 76.9295 405.517C76.4622 412.721 76.1085 419.934 75.7503 427.143C75.4009 434.264 74.89 441.398 74.9725 448.528C75.1302 462.311 77.8855 476.139 82.7032 489.044C83.9042 492.255 85.2358 495.422 86.6552 498.542C87.9003 501.281 92.1585 500.975 93.4949 498.542C93.8006 497.983 94.0409 497.406 94.2418 496.82C97.7356 496.851 101.264 496.58 104.737 496.903C110.868 497.476 117.013 497.795 123.162 498.175C135.33 498.931 147.519 499.433 159.691 500.128C160.872 500.195 162.053 500.263 163.233 500.333C154.559 473.477 155.684 444.442 154.312 416.512C154.201 414.26 157.696 414.273 157.806 416.512C159.184 444.562 158.011 473.671 166.991 500.571C170.475 500.807 173.955 501.095 177.423 501.517C180.226 501.853 183.043 502.251 185.873 502.111C189.083 501.958 192.219 501.224 195.351 500.586C201.041 499.429 206.522 499.953 212.235 500.665C218.345 501.43 224.477 501.853 230.626 502.12C255.249 503.199 280.038 504.182 304.653 502.535C310.61 502.137 316.554 501.578 322.471 500.818C328.568 500.036 334.6 498.721 340.692 497.974C346.697 497.24 352.218 499.254 358.153 499.625C364.206 500.005 370.421 498.743 376.417 498.018C378.373 497.78 380.332 497.55 382.29 497.321C379.769 480.031 378.335 462.612 376.942 445.199C376.763 442.953 380.258 442.972 380.436 445.199C381.817 462.476 383.219 479.766 385.737 496.919C396.121 495.71 406.514 494.488 416.789 492.605C419.715 492.072 422.624 491.202 424.375 488.59C425.672 486.654 425.934 484.282 425.309 482.054" fill="black"/>
<path fill-rule="evenodd" clip-rule="evenodd" d="M346.471 115.451C345.533 107.187 346.747 89.9147 346.828 88.8653C347.343 82.2313 344.242 56.0347 338.38 58.4485C328.547 50.6454 315.45 48.9223 303.204 48.0992C277.767 46.3893 250.706 50.3147 231.064 67.4753C221.35 76.3872 211.893 89.3489 212.653 102.845C203.827 115.638 191.385 133.186 202.382 148.141C206.119 152.92 212.06 154.699 216.756 158.318C226.201 165.954 232.126 176.914 241.661 184.505C266.921 207.259 309.812 212.012 334.63 186.132C353.821 167.388 350.718 139.346 347.343 115.451C345.073 99.3856 348.301 131.572 346.471 115.451Z" fill="white"/>
<path fill-rule="evenodd" clip-rule="evenodd" d="M269.223 13.056C276.026 11.6798 283.012 10.8235 289.959 11.0813L290.495 11.1021C295.722 11.3116 302.342 11.7748 306.902 14.8219C307.164 14.558 307.586 14.4225 307.969 14.6056C313.388 17.1985 319.348 19.0731 325.054 20.936C330.733 22.7897 336.626 24.0134 342.578 24.5066C344.818 24.6923 346.735 27.1165 345.317 29.2908C344.979 29.809 344.651 30.3324 344.323 30.8571C344.871 30.7998 345.418 30.7409 345.965 30.6854C347.767 30.5036 349.566 32.4307 349.459 34.1887C349.393 35.2944 349.274 36.3871 349.098 37.4666C349.784 37.4522 350.466 37.5553 351.125 37.8345C354.461 39.2469 354.229 43.2308 353.979 46.2619C353.633 50.4681 352.064 54.9234 349.15 58.0716C351.326 60.3368 352.866 63.0419 353.784 66.2548C354.451 68.6008 354.822 71.0997 354.639 73.5419L354.58 74.2731C354.354 76.9233 353.904 79.8574 352.002 81.764C351.026 82.7469 349.823 83.1052 348.676 82.9916C349.37 89.0992 349.814 95.2417 350.233 101.362L350.429 104.288C351.362 118.434 352.063 132.672 351.88 146.841C351.71 160.083 349.099 172.936 340.998 183.688C333.619 193.478 323.025 200.696 311.04 203.439C304.581 204.92 297.987 205.025 291.45 204.081C288.281 203.623 285.091 202.919 282.084 201.81C278.755 200.578 276.362 198.765 274.122 196.047C273.062 194.758 273.572 192.015 275.682 192.273C278.873 192.66 281.786 193.128 284.845 194.074L285.283 194.212C288.329 195.191 291.485 195.92 294.67 196.231C301.195 196.864 307.819 196.226 314.069 194.243C324.245 191.01 333.009 183.806 338.627 174.754C345.295 164.024 346.049 151.844 345.952 139.506C345.849 125.968 345.41 112.422 344.693 98.8979L344.571 96.6441C344.192 89.6846 343.826 82.7207 343.504 75.7569C343.403 73.5725 343.251 71.3706 342.976 69.1906C340.462 67.7139 338.208 65.6781 336.74 63.166C333.789 64.3893 330.686 65.2718 327.831 65.9751C321.218 67.6056 314.352 68.0014 307.621 66.9804C305.806 67.7323 303.954 68.3933 302.074 68.9621C301.566 69.188 301.057 69.4099 300.55 69.6275C296.017 71.5716 291.419 73.2186 286.634 74.4244L285.459 74.7182C282.941 75.3405 280.205 75.9533 277.526 76.1457C277.085 76.3161 276.61 76.4602 276.091 76.5869C273.651 77.1811 271.119 77.369 268.617 77.1593C266.181 76.9539 264.42 74.4856 265.762 72.1745C266.743 70.4881 267.733 68.8061 268.731 67.1285C265.257 68.5789 261.671 69.7847 258.053 70.807C254.401 71.8381 250.697 72.7075 246.988 73.5069C245.005 73.9307 243.013 74.3064 241.035 74.7302C239.618 75.0316 237.444 75.1889 236.288 76.1238C235.012 77.1505 234.65 79.5446 234.166 81.0213C233.53 82.9392 232.932 84.8658 232.388 86.8143C231.303 90.7025 230.414 94.6475 229.725 98.6319C229.037 102.621 228.574 106.649 228.317 110.69C228.061 114.726 228.173 118.789 227.76 122.809C227.537 124.941 225.254 126.037 223.567 124.548C223.369 124.373 223.17 124.196 222.973 124.017L222.678 123.748C221.235 122.437 219.836 121.048 218.682 119.484C218.473 119.196 218.272 118.894 218.085 118.588C218.054 118.588 218.028 118.58 217.998 118.558L217.677 118.316C214.153 115.687 208.264 112.258 204.827 116.627C203.732 118.019 203.171 119.791 202.706 121.501L201.889 124.561C201.361 126.559 200.864 128.567 200.573 130.611C199.915 135.19 200.246 140.467 203.389 144.137C204.644 145.605 206.374 146.654 208.305 146.929C209.381 147.077 210.445 146.894 211.513 146.758C212.598 146.623 213.643 146.841 214.729 146.737C216.455 146.566 217.209 148.637 216.564 149.939C216.215 150.638 215.805 151.241 215.339 151.752C215.713 152.075 216.071 152.425 216.416 152.792C217.435 153.119 218.35 153.823 219.035 154.753C219.588 155.505 219.875 156.322 219.924 157.182C219.984 157.396 220.037 157.615 220.085 157.838L221.02 159.359C221.226 159.693 221.431 160.022 221.636 160.345C224.016 164.103 226.657 167.283 229.939 170.28C233.099 173.163 236.528 175.745 239.496 178.838L239.846 179.206C242.613 182.129 245.53 185.667 244.447 189.918C244.168 191.01 242.647 191.796 241.654 191.058C238.459 188.681 236.85 184.915 234.14 182.032C231.35 179.061 228.261 176.392 225.463 173.43C222.817 170.634 220.73 167.467 219.157 163.98C218.529 164.675 217.614 165.169 216.346 165.361C214.167 165.688 212.135 164.408 211.186 162.517C210.575 162.788 209.952 163.032 209.324 163.224C206.021 164.238 203.943 160.555 205.189 157.833C205.855 156.374 206.688 155.107 207.721 154.041C204.491 153.596 201.205 151.922 199.083 149.834C193.758 144.587 193.025 136.702 194.224 129.69C194.86 125.972 195.958 122.21 197.384 118.72C197.631 118.112 197.898 117.501 198.189 116.898C198.028 116.893 197.862 116.824 197.758 116.688C196.795 115.369 195.623 114.29 194.908 112.813C194.25 111.459 193.518 110.087 192.999 108.676C191.931 105.788 191.408 102.529 191.06 99.475C190.341 93.2233 190.619 87.0109 191.574 80.7985C193.199 70.2172 197.125 60.0913 202.909 51.206C202.594 51.0401 202.292 50.8399 202.011 50.6031L201.872 50.4817L201.646 50.2772C199.996 48.78 200.138 45.974 201.646 44.4575L202.122 43.979C202.726 43.3784 203.246 42.9026 204.22 42.2487C204.364 42.1521 204.51 42.0613 204.659 41.9765C204.149 41.032 203.972 39.9275 204.327 38.7091C205.565 34.4644 211.658 34.6147 215.52 36.4657C219.792 32.6435 224.529 29.3254 229.664 26.6386C241.893 20.2426 255.721 15.7821 269.223 13.056ZM206.008 124.853C208.292 124.106 211.325 125.675 213.378 126.618C215.98 127.815 218.194 129.585 220.338 131.455C221.406 132.39 221.597 133.919 221.332 135.225C221.305 135.356 221.279 135.491 221.248 135.627C220.965 137.02 219.414 138.117 218.041 138.078C215.169 137.999 213.801 135.513 212.175 133.407C211.983 133.748 211.744 134.063 211.447 134.299L211.247 134.456C210.572 134.971 209.828 135.383 208.937 135.343C208.305 135.312 207.699 135.151 207.141 134.858C205.746 134.12 205.132 132.311 205.511 130.839C205.746 129.912 206.287 129.187 206.993 128.685L206.73 128.504C206.167 128.111 205.653 127.697 205.253 127.086L205.162 126.942H205.197C204.762 126.19 205.045 125.168 206.008 124.853Z" fill="black"/>
<path fill-rule="evenodd" clip-rule="evenodd" d="M313.877 168.818C310.659 169.75 307.206 169.834 303.927 168.871C300.952 167.998 297.898 166.076 295.709 163.533C293.764 161.274 292.504 158.529 292.554 155.599C292.559 155.264 292.679 154.985 292.863 154.768C293.061 154.535 293.338 154.375 293.634 154.305C293.939 154.233 294.261 154.259 294.536 154.384C294.784 154.496 294.997 154.688 295.13 154.968C295.467 155.41 295.802 155.846 296.138 156.269C298.843 159.611 301.463 162.108 305.531 163.004C307.738 163.49 309.942 163.274 311.964 162.533C314.129 161.739 316.086 160.343 317.62 158.557C318.313 157.75 319.131 157.42 319.931 157.415C320.838 157.409 321.734 157.83 322.409 158.504C323.073 159.166 323.517 160.065 323.558 161.007C323.593 161.833 323.324 162.696 322.607 163.465C320.246 166.001 317.187 167.859 313.877 168.818ZM313.777 126.969C317.075 128.974 322.1 133.65 318.552 138.621C314.376 143.005 308.364 137.979 305.401 135.706C302.653 133.944 299.566 138.475 302.115 140.532C323.526 156.389 332.215 127.493 315.445 124.611C313.599 124.293 312.913 126.348 313.777 126.969ZM282.927 118.145C281.867 117.467 280.62 117.234 279.238 117.863C278.158 118.354 276.264 119.992 274.946 122.145C274.044 123.618 273.404 125.345 273.538 127.145C273.568 127.563 273.414 127.871 273.171 128.099C272.978 128.279 272.7 128.411 272.374 128.453C272.097 128.488 271.787 128.456 271.535 128.377C271.055 128.228 270.801 127.916 270.706 127.662C269.783 125.211 270.18 122.475 271.215 120.006C272.611 116.675 275.146 113.884 276.807 112.985C279.649 111.445 283.002 111.374 285.848 112.943C288.271 114.278 289.786 116.434 291.292 118.631C291.613 119.099 291.93 119.562 292.259 120.018C292.917 120.931 292.983 121.836 292.728 122.612C292.446 123.472 291.725 124.198 290.825 124.578C289.992 124.929 289.026 124.979 288.171 124.618C287.449 124.313 286.786 123.719 286.366 122.711C285.66 121.014 284.483 119.141 282.927 118.145V118.145ZM336.761 121.922C336.035 122.3 335.467 122.414 334.662 122.173C334.217 122.039 333.777 121.782 333.432 121.438C333.09 121.096 332.844 120.671 332.748 120.2C332.513 119.037 331.877 117.948 330.97 117.238C330.195 116.632 329.217 116.31 328.132 116.492C326.962 116.687 325.846 117.438 325.078 118.324C324.821 118.62 324.62 118.956 324.418 119.291C324.039 119.916 323.671 120.497 323.149 120.956C322.952 121.13 322.653 121.251 322.365 121.251C322.247 121.251 322.128 121.232 322.015 121.197C320.85 120.027 320.625 119.139 320.663 118.259C320.702 117.336 321.066 116.402 321.654 115.53C323.033 113.484 325.651 111.807 327.418 111.427C329.838 110.907 332.241 111.532 334.168 112.883C336.15 114.275 337.619 116.434 338.077 118.868C338.187 119.454 338.141 120.087 337.917 120.636C337.699 121.172 337.319 121.631 336.761 121.922ZM288.263 96.3372C286.811 97.7524 285.092 97.9717 283.354 98.1667C282.387 98.276 281.616 98.3642 280.857 98.5355C278.771 99.0065 276.709 99.7159 274.828 100.738C272.862 101.806 270.719 103.094 269.177 104.744C268.81 105.137 268.465 105.549 268.119 105.962C267.803 106.338 267.499 106.701 267.179 107.05C266.811 107.452 266.461 107.872 266.114 108.292C265.899 108.646 265.856 108.733 265.813 108.824C265.748 108.96 265.672 109.113 265.586 109.276C265.467 109.5 265.329 109.745 265.183 109.968C264.941 110.374 264.812 110.486 264.699 110.536C264.513 110.619 264.337 110.66 264.166 110.638C264.005 110.617 263.854 110.54 263.705 110.414C262.959 109.783 262.739 108.749 262.762 107.652C262.796 105.986 263.41 104.142 263.976 103.008C265.293 100.374 267.119 97.6353 269.314 95.6693C271.819 93.425 274.56 91.726 277.708 90.5553C279.664 89.8275 281.929 89.1595 284.06 89.2439C285.595 89.3046 287.059 89.7608 288.269 90.9C289.011 91.5993 289.368 92.594 289.368 93.588C289.368 94.6018 288.997 95.6216 288.263 96.3372ZM339.714 109.297C339.622 109.449 339.494 109.553 339.352 109.616C339.203 109.681 339.037 109.7 338.877 109.673C338.718 109.646 338.567 109.574 338.447 109.464C338.332 109.359 338.244 109.218 338.205 109.047C337.241 104.811 335.369 101.66 331.373 99.6273C329.408 98.6276 327.148 97.9924 325.008 97.4859C324.386 97.3388 323.729 97.2434 323.068 97.1468C320.994 96.8439 318.906 96.4971 317.554 94.8204C316.739 93.8105 316.398 92.5189 316.591 91.3376C316.773 90.2254 317.422 89.2056 318.604 88.5945C321.544 87.0737 325.198 88.566 328.167 89.8372C328.387 89.9315 328.604 90.024 328.815 90.1134C331.719 91.3394 334.367 92.9578 336.544 95.2723C338.271 97.1084 339.872 99.8229 340.516 102.615C341.053 104.938 340.926 107.31 339.714 109.297Z" fill="black"/>
<path fill-rule="evenodd" clip-rule="evenodd" d="M323.028 175.874C318.96 172.25 314.401 164.962 308.558 170.728C307.113 172.358 306.528 176.01 304.318 176.726C301.383 177.679 298.474 174.572 297.474 172.187C293.382 158.934 310.298 155.298 319.936 157.439C324.644 159.373 328.111 167.159 328.321 171.222C328.456 173.952 326.146 177.967 323.028 175.874M353.713 155.446C353.673 155.27 353.618 155.111 353.551 154.966C351.752 154.286 350.328 154.98 349.449 156.276C349.478 156.598 349.574 156.924 349.634 157.243C348.956 158.674 348.343 160.443 347.424 161.679C347.242 161.693 347.054 161.674 346.873 161.622C331.625 163.215 339.069 147.256 323.604 143.292C311.649 141.319 290.042 143.579 284.403 156.026C279.955 175.908 257.339 162.054 249.914 151.715C241.991 142.305 236.868 130.806 231.929 119.648C230.885 117.287 227.627 118.975 227.982 121.241C223.416 130.403 223.568 141.408 222.437 151.445C220.514 171.469 218.64 199.551 237.239 211.778C261.472 239.177 321.986 248.846 349.936 223.671C359.611 202.862 358.419 177.476 353.713 155.446" fill="black"/>
<path fill-rule="evenodd" clip-rule="evenodd" d="M337.796 94.4793C348.047 94.4793 353.897 96.6845 356.04 96.8563L356.105 96.8609C356.996 96.9179 357.796 96.9925 358.636 97.3171C361.721 98.506 362.224 101.743 360.423 103.784C360.297 108.006 360.852 112.939 359.9 117.174C358.725 135.03 350.33 138.043 345.559 139.143C343.163 139.695 340.324 139.915 337.779 139.332C333.438 139.17 329.146 137.81 325.474 135.443C320.361 132.144 316.562 127.073 315.33 121.055C314.746 118.186 314.473 115.2 314.79 112.284L314.838 111.882C313.175 111.087 311.249 110.936 309.264 110.866C308.315 110.832 307.38 110.802 306.472 110.843C305.584 110.942 304.707 111.074 303.827 111.254C302.866 111.544 301.959 112.022 301.121 112.78L301.063 113.887C300.906 116.65 300.543 119.422 299.984 122.134C299.158 126.135 297.829 129.955 295.001 132.793C294.044 134.223 292.86 135.5 291.422 136.605C286.198 140.629 279.101 142.106 272.588 141.549C259.365 140.421 251.722 129.92 249.96 125.432L249.855 125.16C248.583 121.824 247.569 117.494 243.548 116.777L242.693 116.624C240.858 116.279 239.165 115.8 238.089 114.009C237.618 113.227 237.375 112.353 237.316 111.462C236.688 111.51 236.061 111.556 235.437 111.601C230.454 112.655 200.569 113.548 198.184 113.548C198.184 113.548 193.599 115.479 191.663 113.983C190.321 112.943 189.879 111.557 190.618 109.986C191.733 107.623 196.875 106.202 199.158 105.752C199.158 105.752 236.003 106.058 238.655 105.555C240.296 103.863 243.231 104.094 245.683 103.827C247.713 102.379 250.553 101.409 252.797 100.759C253.254 100.586 253.707 100.419 254.147 100.261C258.26 98.7955 262.535 98.0195 266.875 97.6027C271.351 97.1772 275.84 97.3698 280.289 97.9795C282.164 98.234 284.022 98.563 285.866 98.9933C289.169 99.4289 292.452 100.146 295.756 100.997L296.417 101.169C299.897 102.082 303.472 102.871 307.073 102.252C310.005 101.752 312.825 100.623 315.529 99.4026L315.88 99.2429C321.825 96.5279 331.108 94.4793 337.796 94.4793ZM285.509 104.406C283.315 103.924 282.379 107.306 284.579 107.79C286.137 108.133 287.458 108.919 288.35 110.25L288.444 110.395C289.641 112.301 292.668 110.542 291.463 108.624C290.106 106.465 287.999 104.954 285.509 104.406ZM349.747 102.309C348.973 101.764 347.803 102.169 347.355 102.938C346.86 103.786 347.184 104.73 347.908 105.285L347.982 105.339C348.646 105.807 349.293 106.647 349.375 107.507L349.382 107.614C349.469 109.865 352.966 109.877 352.878 107.614C352.793 105.401 351.512 103.552 349.747 102.309Z" fill="#FF1A41"/>
</g>
<path d="M489.273 260.454C489.425 260.978 489.951 261.512 490.546 261.463C496.354 261.031 502.489 258.046 507.882 255.907C513.64 253.624 519.341 251.19 525.013 248.686C531.994 245.609 538.94 242.448 545.825 239.172C546.716 238.748 546.73 237.294 545.846 236.858C535.425 231.689 524.752 227.305 513.894 223.13C509.859 221.58 505.81 220.055 501.751 218.562C499.673 217.797 497.581 217.067 495.51 216.286C494.013 215.721 492.38 214.612 490.771 214.544C487.616 214.412 488.094 218.404 487.939 220.596C487.672 224.391 487.527 228.189 487.475 231.994C484.275 231.596 481.089 231.114 477.919 230.534C476.548 230.283 475.78 231.699 476.609 232.761C480.276 237.464 483.945 242.172 487.607 246.878C487.592 246.969 487.582 247.068 487.584 247.171C487.707 251.659 488.035 256.12 489.277 260.451L489.273 260.454ZM508.457 252.835C505.838 253.891 503.2 254.914 500.543 255.871C497.682 256.898 494.619 258.242 491.579 258.677C490.711 255.175 490.408 251.602 490.285 247.994C498.579 245.536 507.126 244.272 515.681 243.08C523.051 242.055 530.421 241.03 537.791 240.005C533.522 241.978 529.24 243.916 524.944 245.822C519.483 248.241 513.998 250.607 508.457 252.835ZM489.263 234.886C498.534 235.781 507.831 236.338 517.13 236.861C522.502 237.163 527.863 237.445 533.203 237.964C527.146 238.805 521.093 239.644 515.039 240.49C506.539 241.672 498.039 242.932 489.795 245.361C486.768 241.48 483.742 237.592 480.715 233.71C483.554 234.173 486.404 234.565 489.269 234.888L489.263 234.886ZM490.847 217.283C491.721 217.407 492.813 218.084 493.516 218.364C494.869 218.906 496.248 219.389 497.613 219.885C500.704 221.01 503.791 222.148 506.872 223.305C512.854 225.552 518.813 227.866 524.739 230.248C528.984 231.955 533.15 233.777 537.277 235.693C521.697 233.637 505.781 233.743 490.142 232.286C490.168 229.885 490.229 227.487 490.344 225.086C490.453 222.782 490.195 219.651 490.842 217.275L490.847 217.283Z" fill="black"/>
<path d="M35.7419 306.129C37.8511 302.198 39.7601 296.841 38.6961 292.397C37.6321 287.948 33.6201 285.325 29.652 283.541C29.5706 283.504 29.4893 283.486 29.4079 283.461C29.3516 283.43 29.3015 283.4 29.2389 283.369C26.7166 282.326 23.5621 281.332 20.4827 280.11C19.2497 274.543 18.0355 268.977 16.9026 263.392C20.5391 263.583 23.7874 265.015 26.2597 267.884C26.7541 268.458 27.743 268.514 28.3689 268.156C31.0665 266.601 33.7641 265.046 36.4617 263.49C36.9561 263.207 37.3817 262.596 37.3254 262.009C37.1627 260.25 35.1035 258.559 33.883 257.43C31.2918 255.048 27.9433 253.974 24.4696 253.567C21.3589 253.203 18.2983 253.628 15.5444 254.715C15.0437 252.018 14.5555 249.315 14.1049 246.605C13.7419 244.427 10.3809 245.353 10.7439 247.519C11.2383 250.475 11.7703 253.431 12.3211 256.375C9.83009 258.022 7.79592 260.331 6.46904 263.163C-1.02286 269.106 -3.03819 282.264 5.99339 288.003C10.0053 290.558 14.8998 290.811 19.5001 291.601C20.6955 297.224 21.8409 302.852 22.8799 308.505C22.11 308.332 21.359 308.067 20.6454 307.697C17.347 305.987 16.9214 303.364 15.3504 300.451C14.5555 298.976 13.3288 298.359 11.6264 298.637C8.59709 299.124 5.21103 301.303 2.38827 302.513C1.74986 302.784 1.33675 303.815 1.58711 304.45C4.28469 311.251 10.3621 316.263 17.8665 316.911C19.9069 317.089 22.11 316.923 24.2443 316.417C24.576 318.515 24.8952 320.62 25.1769 322.73C25.4648 324.89 28.9573 324.921 28.6631 322.73C28.3314 320.255 27.9621 317.787 27.574 315.324C31.611 313.596 34.9282 310.511 35.7419 306.123V306.129ZM30.9726 306.672C29.6645 307.74 28.081 308.4 26.4412 308.641C25.4523 303.222 24.3758 297.822 23.2366 292.435C25.1519 292.99 26.9857 293.811 28.4002 295.243C30.7974 297.668 32.287 301.649 32.3496 305.061C31.9615 305.66 31.5109 306.197 30.9726 306.678V306.672ZM9.34815 265.379C10.6563 264.626 11.9894 264.077 13.4227 263.713C14.4116 268.594 15.4631 273.47 16.5333 278.333C11.3948 275.679 7.59566 271.884 9.34815 265.379ZM23.9501 256.936C26.654 257.22 29.3704 258.053 31.417 259.862C31.8614 260.25 32.262 260.713 32.6688 261.145C32.7502 261.232 32.8565 261.367 32.9692 261.528C31.2543 262.521 29.5331 263.509 27.8181 264.496C24.382 261.139 19.644 259.621 14.7871 259.973C14.6745 259.979 14.5743 260.004 14.4742 260.028C14.4241 260.028 14.3803 260.028 14.324 260.034C13.7669 260.115 13.2287 260.226 12.6966 260.349C15.6821 257.732 19.8944 256.51 23.9564 256.936H23.9501ZM5.26108 282.573C2.56975 278.524 2.98909 273.223 5.48639 269.248C5.75552 272.939 7.56437 276.296 10.8002 278.851C12.9783 280.573 15.4318 281.813 17.9854 282.856C18.1356 282.949 18.3046 283.017 18.4799 283.054C21.6281 284.307 24.9077 285.3 28.0184 286.559C31.0477 287.923 34.584 289.805 35.335 293.305C35.7356 295.15 35.429 297.31 34.8093 299.39C33.9519 296.896 32.5937 294.545 30.8537 292.805C28.5567 290.503 25.5461 289.386 22.4292 288.688C22.2602 287.886 22.0912 287.09 21.916 286.288C21.4466 284.128 18.0855 285.041 18.555 287.201C18.6113 287.473 18.6739 287.744 18.7302 288.022C13.986 287.312 8.12765 286.886 5.26108 282.566V282.573ZM17.8665 313.479C12.5151 312.918 7.92112 309.536 5.549 304.87C6.95725 304.241 8.37176 303.586 9.81757 303.062C10.4122 302.846 11.714 302.105 12.3649 302.457C12.6028 302.587 13.0284 304.302 13.116 304.494C14.2238 306.925 16.1015 309.06 18.436 310.43C20.3638 311.56 22.4856 312.115 24.6073 312.159C24.7075 312.171 24.8139 312.171 24.9203 312.159C25.4523 312.159 25.978 312.121 26.51 312.06C23.8124 313.3 20.6329 313.763 17.8728 313.473L17.8665 313.479Z" fill="black"/>
<path d="M503.619 1.42524C503.465 0.587802 502.594 0.105432 501.823 0.058535C495.258 -0.370234 488.491 1.59942 482.12 4.56061C482.087 4.54721 482.06 4.53381 482.02 4.52041C473.786 2.08849 465.566 5.47175 458.297 9.30387C451.209 13.0422 445.065 18.3348 440.168 24.6591C439.431 25.6105 439.431 27.5533 440.992 27.7744C443.946 28.2032 446.894 28.4846 449.862 28.6186C445.896 32.9665 442.231 37.5758 438.875 42.1984C438.312 42.9689 438.493 43.7259 438.995 44.2418C439.062 44.3624 439.143 44.483 439.243 44.5969C439.484 44.8716 439.732 45.1395 439.967 45.4209C437.053 46.9283 434.071 48.6166 432.102 51.3098C429.442 54.9409 429.79 59.4028 428.986 63.6235C428.785 64.6887 429.482 66.1291 430.782 65.9817C431.532 65.9013 432.282 65.8209 433.026 65.7405C431.834 70.4101 431.767 75.1265 432.664 79.9703C432.778 80.5799 433.381 81.136 433.964 81.27C435.498 81.6318 437.676 81.0489 439.672 80.1445C439.706 80.9216 439.9 81.6451 440.308 82.228C441.816 84.3584 445.541 82.6568 447.35 81.9064C454.451 78.9587 460.809 74.6576 465.291 68.3734C465.954 68.6548 466.778 68.3868 467.287 67.938C470.865 64.8026 474.476 61.4863 477.926 57.9758C478.643 60.669 479.36 63.3622 480.07 66.0621C480.418 67.3618 482.247 67.9447 483.185 66.8862C488.987 60.3608 493.824 53.0784 497.368 45.0859C500.53 37.951 503.626 29.8714 500.845 22.1736C503.378 15.3803 504.852 8.26543 503.599 1.43863L503.619 1.42524ZM458.069 13.6987C463.529 10.4964 470.061 7.28733 476.533 7.43472C472.855 9.50487 469.384 11.7827 466.249 13.9667C461.653 17.1624 457.339 20.9208 453.306 24.9874C453.265 24.9874 453.225 24.974 453.185 24.974C450.458 24.974 447.765 24.8333 445.072 24.5587C448.817 20.2844 453.138 16.5929 458.069 13.6987ZM451.765 75.5821C450.117 76.5066 448.395 77.3709 446.673 78.1547C446.546 78.215 444.121 79.3472 443.276 79.4276C443.765 79.2132 444.08 77.411 444.328 77.0292C445.521 75.2069 442.901 73.3578 441.401 74.7714C440.121 75.9707 438.466 76.4061 436.845 76.9488C436.657 77.0091 436.322 77.1029 435.981 77.1967C435.425 72.7415 435.907 68.4002 437.408 64.0991C437.776 63.0406 436.778 61.6136 435.612 61.7409C434.714 61.8414 433.817 61.9352 432.912 62.0357C433.174 59.2755 433.294 56.3679 434.721 54.0566C436.416 51.3098 439.578 49.8158 442.345 48.3955C442.405 48.362 442.446 48.3285 442.499 48.295C442.814 48.6367 443.129 48.965 443.444 49.2999C443.357 49.3669 443.276 49.4406 443.196 49.5344C439.458 54.137 440.349 61.7074 441.776 67.067C442.057 68.1121 443.082 68.5342 444.067 68.3667C444.522 68.293 444.965 68.1926 445.414 68.1055C445.273 68.9563 445.206 69.8205 445.199 70.7584C445.199 71.9577 446.398 72.8889 447.557 72.5539C452.475 71.1403 456.635 68.4873 459.905 64.5413C459.931 64.5078 459.951 64.4743 459.972 64.4408C460.735 65.0371 461.499 65.6266 462.269 66.2095C459.529 70.1488 455.918 73.2507 451.745 75.5888L451.765 75.5821ZM465.874 64.2331C457.419 58.0428 449.735 50.9547 442.841 43.0694C449.875 33.5159 458.411 23.9624 468.138 17.1892C477.075 10.9654 488.867 3.71647 500.215 3.74326C500.872 9.47134 499.11 15.4071 497.187 20.7265C495.11 26.4747 492.464 32.1224 489.416 37.415C483.561 47.5849 474.657 56.4483 465.874 64.2331ZM493.121 45.4745C490.334 51.283 486.85 56.6828 482.777 61.6538C482.174 59.3693 481.564 57.0914 480.961 54.8069C485.812 49.5411 490.193 43.8666 493.503 37.7299C495.064 34.829 496.698 31.7271 498.206 28.4913C498.279 34.3466 495.606 40.2958 493.121 45.4745Z" fill="black"/>
<path d="M483.253 19.1119C480.526 17.7787 477.029 18.1673 474.892 20.4116C472.172 23.2723 472.44 28.1429 475.595 30.5681C479.206 33.3417 484.385 31.3653 486.348 27.6203C486.488 27.4327 486.602 27.2049 486.669 26.9236C486.756 26.6958 486.79 26.4881 486.797 26.2938C487.279 23.3326 486.073 20.492 483.253 19.1119ZM477.042 26.5752C476.298 25.0142 476.928 23.0311 478.536 22.321C481.062 21.2089 483.721 23.2723 483.072 25.932C482.134 28.3037 478.228 29.0607 477.042 26.5685V26.5752Z" fill="black"/>
<path d="M463.683 34.8825C459.878 35.6195 457.406 39.3042 458.524 43.0693C458.571 43.2234 458.632 43.3641 458.705 43.4914C458.705 43.4981 458.705 43.5048 458.712 43.5182C460.199 47.0221 464.601 48.6232 467.971 46.8077C470.55 45.4209 472.044 42.2319 471.3 39.3645C470.443 36.0617 466.932 34.2528 463.676 34.8825H463.683ZM466.39 43.4177C464.735 44.4561 462.933 43.5182 462.102 41.9639C461.157 38.3462 467.281 37.0599 467.756 40.5704C467.904 41.6557 467.307 42.8348 466.39 43.411V43.4177Z" fill="black"/>
</svg>
