<svg width="45" height="51" viewBox="0 0 45 51" fill="none" xmlns="http://www.w3.org/2000/svg">
<path d="M42.351 15.748C42.4158 15.5301 42.4818 15.3088 42.5466 15.0908C42.7012 14.566 42.4815 14.0322 41.9604 13.8261C39.8129 12.9672 37.5815 12.4099 35.4441 11.5132C35.66 10.8521 35.8544 10.1983 36.0468 9.57019C36.1981 9.38397 36.2651 9.12907 36.1681 8.8065C35.7205 7.32825 32.6187 6.76533 31.3824 6.31594C29.216 5.52943 27.0019 4.84245 24.8566 3.98813C24.3687 3.79422 23.7612 4.08135 23.5918 4.57439C23.3797 5.18396 23.1555 5.78531 22.9268 6.38877C20.3288 5.327 17.7272 4.27522 15.1 3.29334C14.6006 3.1103 14.015 3.379 13.8352 3.87959C9.65684 15.3615 5.39676 26.9117 0.52867 38.122C0.314447 38.6137 0.640092 39.2089 1.11494 39.3867C10.4247 42.8973 19.5737 46.8777 28.9747 50.1499C29.4798 50.3275 30.0506 50.0684 30.2394 49.5636C34.4474 38.3719 38.8616 27.1841 42.3568 15.7426L42.351 15.748ZM23.7569 9.64622C26.7051 10.8137 29.6582 11.9679 32.617 13.1166C32.4884 13.2923 32.3172 13.4297 32.0629 13.4951C31.6594 13.5964 30.7038 13.0611 30.3318 12.9323C28.0168 12.1291 25.7767 11.1418 23.6143 9.99422C23.6603 9.87892 23.7064 9.76363 23.7524 9.64833L23.7569 9.64622ZM25.1008 6.19623C26.5099 6.72028 27.9477 7.18684 29.3608 7.6897C30.453 8.07874 31.5441 8.47111 32.6266 8.88678C33.037 9.04475 33.4587 9.27485 33.8795 9.38378C33.9273 9.39753 33.9718 9.41007 34.0106 9.42804C33.8698 9.8636 33.7178 10.2988 33.5637 10.7295C31.9747 10.0678 30.3787 9.4148 28.7812 8.77636C27.4342 8.23732 26.0909 7.68828 24.7476 7.13925C24.8669 6.8242 24.9849 6.5125 25.1008 6.19623ZM35.0236 27.8468C32.7329 33.8387 30.441 39.8339 28.1503 45.8258C27.9618 46.3194 27.3879 46.6075 26.8856 46.4121C24.3855 45.4541 21.8875 44.5008 19.3875 43.5428C15.8869 42.2031 12.3863 40.8633 8.88571 39.5236C7.66004 39.0554 4.64069 38.5869 4.74715 36.885C4.83731 35.3924 5.80287 33.6957 6.34346 32.3342C6.98345 30.7221 7.65551 29.1256 8.30881 27.5184C10.9822 20.9153 13.4756 14.2877 15.7973 7.55193C15.9667 7.05888 16.5767 6.76508 17.0621 6.96565C18.6813 7.62717 20.3043 8.27871 21.9297 8.92358C21.7712 9.31486 21.6126 9.70615 21.4529 10.1008C21.3087 10.4633 21.4396 11.0438 21.805 11.2419C24.9287 12.9609 28.6522 15.0319 32.2175 15.5872C33.0717 15.719 33.5481 15.5425 34.0189 14.7936C34.206 14.4996 34.3713 14.1826 34.5278 13.8586C35.9163 14.3977 37.3027 14.9323 38.6911 15.4714C39.1835 15.6632 39.4729 16.2338 39.2774 16.7362C37.8632 20.4398 36.4457 24.1423 35.0281 27.8447L35.0236 27.8468Z" fill="black"/>
<path d="M17.0312 18.1362C21.5513 19.8988 26.1315 21.487 30.773 22.8975C31.9826 23.2653 32.6723 21.4147 31.4527 21.0432C26.8112 19.6326 22.231 18.0444 17.7109 16.2819C16.5276 15.8217 15.8491 17.6727 17.0312 18.1362Z" fill="black"/>
<path d="M28.6274 29.3166C23.9562 27.7706 19.386 25.9594 14.9233 23.8856C13.7715 23.3501 13.0984 25.2069 14.2437 25.7399C18.7063 27.8137 23.2765 29.6249 27.9477 31.1709C29.1496 31.5699 29.836 29.7181 28.6274 29.3166Z" fill="black"/>
<path d="M24.7939 36.7368C21.0654 34.9887 17.3249 33.2627 13.5702 31.5654C12.4134 31.0432 11.7371 32.8988 12.8905 33.4197C16.6452 35.117 20.3823 36.8418 24.1142 38.5911C25.2649 39.1299 25.9379 37.2732 24.7939 36.7368Z" fill="black"/>
</svg>
