<svg width="48" height="50" viewBox="0 0 48 50" fill="none" xmlns="http://www.w3.org/2000/svg">
<path d="M30.0417 9.38687C27.0934 6.70422 23.0066 5.05579 18.9887 5.40565C14.2651 5.82051 10.6342 9.2094 8.59491 13.2975C5.75659 19.4409 6.04504 27.2829 11.2028 32.1359C14.0358 34.8004 17.8573 35.9344 21.6788 36.0595C23.2345 36.1108 25.1123 35.3636 26.6083 35.7395C26.81 35.7903 26.9996 35.8684 27.1801 35.968C27.2353 36.017 27.2962 36.0544 27.3606 36.082C28.5534 36.8683 29.3638 38.604 30.2209 39.5896C30.9622 40.4412 31.8866 41.2998 33.083 41.2742C34.7895 41.237 36.6409 39.5517 37.7284 38.3781C41.0517 34.7933 34.6167 32.6979 34.8797 29.03C35.015 27.1532 35.8202 25.3945 35.9068 23.4819C35.988 21.6823 35.7924 19.8958 35.3323 18.1531C34.4474 14.8008 32.6107 11.7211 30.0435 9.38919L30.0417 9.38687ZM25.1871 27.5846C25.5412 26.9724 25.8133 26.2951 26.0061 25.6232C26.4931 25.6001 26.9815 25.5069 27.4501 25.3489C28.3141 27.3525 29.6856 29.0527 31.3732 30.3834C30.338 31.6263 29.1719 32.7104 27.8618 33.6566C27.3545 32.4903 26.8257 31.3293 26.3317 30.1566C25.9773 29.3175 25.659 28.3966 25.1871 27.5846ZM24.7605 23.8207C24.1245 23.5936 23.7337 23.1339 23.5859 22.4436C24.3374 21.7089 24.7101 21.6306 24.704 22.2086C24.9076 22.6318 24.9056 23.2248 24.8058 23.8373C24.7901 23.831 24.7739 23.8287 24.7565 23.8201L24.7605 23.8207ZM29.9207 36.5358C31.5985 35.3845 33.0414 33.9896 34.2449 32.3546C34.3171 32.4597 34.3933 32.5655 34.4701 32.6671C33.3858 34.4262 32.0166 35.8851 30.3059 37.0649C30.2099 36.9234 30.1168 36.7905 30.0312 36.6773C29.9946 36.6288 29.9597 36.5826 29.9207 36.5358ZM32.9167 31.4419C31.7754 32.9718 30.4178 34.2587 28.8272 35.3333C28.7424 35.2595 28.6593 35.188 28.5757 35.1205C30.1263 34.0362 31.5002 32.766 32.6997 31.3083C32.7722 31.3515 32.8442 31.3987 32.9167 31.4419ZM31.6674 38.896C31.5134 38.7402 31.368 38.567 31.2255 38.3879L31.2301 38.3844C32.9692 37.1941 34.4153 35.7169 35.5529 33.9612C35.6582 34.0812 35.7675 34.2019 35.8704 34.3237C35.0921 36.1709 33.2298 37.6976 31.6651 38.8978L31.6674 38.896ZM35.3812 38.3549C34.8354 38.7854 34.1298 39.3982 33.4152 39.5716C34.7354 38.5089 36.0937 37.2469 36.9382 35.7997C37.3062 36.8535 36.2013 37.7064 35.3812 38.3549ZM33.5766 27.3435C33.3618 28.188 33.2429 28.9963 33.3031 29.7964C33.2328 29.7515 33.1609 29.7043 33.0906 29.6593C33.0232 29.5941 32.946 29.54 32.8631 29.4974C31.1307 28.2658 29.6834 26.5903 28.8849 24.6206C29.0548 24.4995 29.2188 24.3756 29.3706 24.2355C30.3699 23.3245 31.7831 20.5404 29.6009 20.0008C28.532 19.734 27.5223 20.6456 27.1247 21.5556C26.8053 22.2905 26.7993 23.0752 26.9555 23.8391C26.7513 23.9099 26.5395 23.961 26.3242 23.993C26.3281 23.9502 26.3337 23.9096 26.3394 23.869C26.4796 22.21 26.1734 18.7832 23.6177 19.7523C21.723 20.4723 21.5582 23.0355 22.8005 24.3869C23.2527 24.8799 23.7977 25.2122 24.3862 25.4099C24.2823 25.6952 24.1744 25.951 24.0795 26.1569C24.068 26.1801 24.0542 26.205 24.0427 26.2282C22.5619 25.0752 20.1127 25.1908 19.5199 27.2644C18.9255 29.3501 21.3762 30.4854 23.0454 29.707C23.4455 29.5209 23.806 29.2631 24.1321 28.955C24.4694 29.6801 24.7125 30.4726 24.9571 31.0462C25.4096 32.1016 25.88 33.147 26.3394 34.197C25.774 34.1307 25.1457 34.1444 24.4233 34.2402C20.9623 34.7028 17.3547 34.3036 14.308 32.4755C7.86402 28.605 7.16719 20.2369 10.0831 13.9224C11.8723 10.339 15.0442 7.38026 19.1785 7.01147C22.6365 6.70351 26.126 8.14265 28.7201 10.3708C33.7056 14.6499 35.1407 21.1756 33.576 27.3475L33.5766 27.3435ZM28.4254 22.7105C28.3909 22.1269 28.5336 22.0082 28.8545 22.3754C28.7019 22.4472 28.5627 22.5704 28.4254 22.7105ZM23.185 27.562C22.8081 28.0718 22.2913 28.3389 21.6346 28.3631C20.8487 27.3565 21.1514 26.9645 22.5397 27.1786C22.7786 27.2594 22.9916 27.3925 23.185 27.562Z" fill="black"/>
<path d="M9.77161 17.5834C9.40585 22.3161 9.33061 27.9906 13.912 30.8077C14.786 31.345 15.78 30.0715 14.8943 29.5285C10.8289 27.0292 11.0465 21.9803 11.3696 17.806C11.4494 16.7732 9.85197 16.5465 9.77161 17.5834Z" fill="black"/>
<path d="M17.9481 30.7705C17.9481 30.7705 17.8375 30.7488 17.7731 30.7357C17.7633 30.7323 17.7453 30.7277 17.7157 30.7174C17.6682 30.7025 17.6206 30.6876 17.5731 30.6727C17.1736 30.5427 16.6755 30.6759 16.5183 31.1067C16.3783 31.4882 16.5232 32.0211 16.9523 32.1615C17.3755 32.299 17.8079 32.4006 18.2499 32.4477C18.6699 32.4897 19.1166 32.2067 19.1602 31.76C19.2022 31.34 18.9209 30.8956 18.4725 30.8497C18.2952 30.8312 18.1208 30.8069 17.9458 30.7722L17.9481 30.7705Z" fill="black"/>
</svg>
