<svg width="48" height="42" viewBox="0 0 48 42" fill="none" xmlns="http://www.w3.org/2000/svg">
<path d="M2.94118 30.2446C3.0903 30.3625 3.28102 30.4387 3.52376 30.4422C17.0305 30.5497 30.4818 30.1024 43.9816 29.7833C44.4914 29.7729 44.963 29.3499 44.9456 28.8193C44.689 20.8158 44.3873 12.8297 43.7527 4.84353C43.7111 4.2991 43.3436 3.9107 42.7887 3.87949C29.8021 3.13393 16.9473 3.79281 3.98844 4.58345C3.47175 4.61466 3.01747 4.99956 3.02441 5.54746C3.1007 13.5163 2.76088 21.5094 2.56322 29.4747C2.55281 29.8388 2.71579 30.092 2.94466 30.2446H2.94118ZM41.8906 5.76246C42.4524 13.1279 42.7436 20.4968 42.9829 27.8761C30.1489 28.1847 17.3565 28.587 4.51554 28.5142C4.70973 21.1695 4.99754 13.8041 4.95593 6.456C17.2906 5.71044 29.5351 5.11746 41.8906 5.76246Z" fill="black"/>
<path d="M1.24181 3.25177C15.9172 2.01032 30.6515 1.64275 45.372 2.15598C46.6134 2.19759 46.6134 0.269536 45.372 0.224456C30.6515 -0.288766 15.9207 0.0788024 1.24181 1.32024C0.0142339 1.42428 0.000363052 3.3558 1.24181 3.25177Z" fill="black"/>
<path d="M46.6308 31.7563C38.9394 31.4408 31.248 32.006 23.5566 32.1482C16.0143 32.2869 8.46513 32.4291 0.929782 31.9852C-0.311661 31.9124 -0.308193 33.8439 0.929782 33.9167C7.50457 34.3051 14.0828 34.2462 20.6645 34.1317C19.5965 36.2158 18.5319 38.3034 17.4639 40.3875C16.8986 41.4902 18.5631 42.4716 19.1318 41.3619C20.3698 38.938 21.6113 36.5141 22.8492 34.0936C23.085 34.0901 23.3208 34.0867 23.5566 34.0797C24.2467 34.0659 24.9368 34.0485 25.6269 34.0312C26.5042 36.469 27.3815 38.9068 28.2623 41.3411C28.6819 42.5028 30.5476 42 30.1245 40.8279C29.2992 38.5427 28.4773 36.254 27.652 33.9688C33.9771 33.7607 40.3022 33.4243 46.6308 33.6844C47.8722 33.7364 47.8722 31.8049 46.6308 31.7529V31.7563Z" fill="black"/>
<path d="M12.9802 23.264C15.4943 21.0654 17.9182 18.7733 20.2694 16.4013C21.2507 18.104 22.2321 19.8067 23.2134 21.5128C23.5567 22.1058 24.2503 22.078 24.7288 21.707C27.6382 19.4564 30.4783 17.1226 33.2594 14.716C33.2594 14.7576 33.2594 14.7993 33.2594 14.8409C33.2871 15.6905 33.3184 16.5435 33.3461 17.3931C33.3877 18.6311 35.3192 18.638 35.2776 17.3931C35.2429 16.4014 35.2083 15.4096 35.1736 14.4178C35.1459 13.5925 35.2429 12.6562 35.0175 11.8621C34.9308 11.557 34.6673 11.2518 34.3448 11.1894C33.5021 11.0229 32.7115 11.3801 31.8931 11.55C30.9048 11.7511 29.8957 11.8101 28.8901 11.8725C27.6556 11.9488 27.6486 13.8803 28.8901 13.804C29.7466 13.7485 30.6032 13.6931 31.4562 13.5717C31.5325 13.5613 31.6088 13.5474 31.6851 13.537C29.2819 15.6107 26.8303 17.6289 24.33 19.5882C23.3209 17.8404 22.3153 16.0927 21.3062 14.345C20.9976 13.811 20.2208 13.7035 19.7908 14.1508C17.1692 16.8452 14.4436 19.4287 11.6139 21.9081C10.6776 22.7265 12.0474 24.0893 12.9802 23.2744V23.264Z" fill="black"/>
</svg>
