<svg width="152" height="37" viewBox="0 0 152 37" fill="none" xmlns="http://www.w3.org/2000/svg">
<g clip-path="url(#clip0_1_1349)">
<path d="M89.6426 14.3934V14.4058C89.5675 14.4058 89.4921 14.4182 89.4171 14.4182C89.3421 14.4182 89.2666 14.4058 89.1916 14.4058C84.7197 14.4058 81.9514 17.1995 81.9514 21.6838V23.8884C81.9514 28.2098 84.7575 30.8907 89.2542 30.8907C89.3462 30.8931 89.4383 30.8889 89.5298 30.8783C89.5924 30.8783 89.6426 30.8907 89.7051 30.8907C92.7238 30.8907 94.8286 29.7886 96.1686 27.5085L93.5006 25.9674C92.6111 27.2826 91.4211 28.2724 89.7176 28.2724C87.4379 28.2724 86.0726 26.8694 86.0726 24.5018V23.8755H96.6449V21.2701C96.6449 17.0863 93.9018 14.3934 89.6426 14.3934ZM89.4171 16.9615C91.4966 17.0619 92.7491 18.4396 92.7491 20.7068V21.3331H86.0602V20.9696C86.0602 18.4645 87.2502 17.0619 89.4171 16.9615ZM72.9952 14.4058C71.0036 14.4058 69.2877 15.2327 68.3857 16.6105L68.1603 16.9611V14.7813H64.3773V35.9387H68.348V28.5485L68.5735 28.8867C69.4253 30.1517 71.0915 30.9031 73.0329 30.9031H73.1332H73.2207C76.4902 30.9031 79.7845 28.7735 79.7845 24.0011V21.3207C79.7845 17.8883 77.7551 14.4187 73.1954 14.4187L73.1705 14.4063H73.0831L72.9952 14.4058ZM72.0684 17.3872C74.3734 17.4249 75.8013 18.9904 75.8013 21.496V23.8005C75.8013 26.3057 74.3605 27.8592 72.0307 27.9093C69.8638 27.8716 68.348 26.2182 68.348 23.8631V21.4956C68.348 19.1156 69.8762 17.4374 72.0684 17.3872ZM123.527 9.18249L115.886 30.5276H120.182L121.648 25.9554H129.99V26.0056L131.456 30.5401H135.752L128.099 9.19492H127.648L127.635 9.18249H123.527ZM125.807 12.8528L129.001 22.9368H122.587L125.807 12.8528ZM151.122 12.1887V9.18249H138.02V12.1887H142.617V27.4961H138.02V30.5023H151.122V27.4961H146.525V12.1887H151.122ZM108.006 14.4063H107.894H107.831C105.614 14.4063 104.036 15.1577 103.259 16.5985L103.021 17.037V14.7822H99.2379V30.5152H103.209V21.1454C103.209 18.9407 104.399 17.6757 106.453 17.638C108.42 17.6757 109.547 18.9159 109.547 21.0579V30.5152H113.518V20.381C113.518 16.6358 111.464 14.4058 108.019 14.4058L108.006 14.4063ZM51.6123 8.74396C45.7623 8.74396 42.1173 12.3894 42.1173 18.2643V21.4334C42.1173 27.3083 45.7499 30.9533 51.6123 30.9533H51.7002H51.7877C57.6377 30.9533 61.2827 27.3083 61.2827 21.4334V18.2643C61.2827 12.3894 57.6377 8.74396 51.7877 8.74396H51.7002H51.6123ZM51.7002 11.926C55.1827 11.9637 57.1868 14.1932 57.1868 18.0512V21.6589C57.1868 25.5169 55.1827 27.7469 51.7002 27.7841C48.2177 27.7464 46.2133 25.5169 46.2133 21.6589V18.0512C46.2133 14.1932 48.2177 11.9633 51.7002 11.926ZM17.1148 0.000838336C13.0686 0.000838336 9.47378 2.60629 8.22077 6.45187C6.93489 6.71694 5.7202 7.25283 4.65755 8.0239C3.5949 8.79496 2.70866 9.78351 2.0578 10.9237C0.0284826 14.4311 0.491871 18.8404 3.2105 21.8467C2.37117 24.3647 2.65923 27.1201 3.99968 29.4002C6.01657 32.92 10.0748 34.7239 14.046 33.8845C14.9155 34.8658 15.9842 35.6505 17.1808 36.1862C18.3775 36.7219 19.6746 36.9963 20.9857 36.9911C25.0319 36.9911 28.6267 34.3856 29.8797 30.5401C32.4852 30.0012 34.7275 28.3727 36.0303 26.0682C38.072 22.5608 37.6086 18.1515 34.8904 15.1453V15.1329C35.3051 13.8882 35.4491 12.5694 35.313 11.2646C35.1769 9.95981 34.7638 8.69912 34.1013 7.56685C32.0839 4.05948 28.0253 2.25519 24.067 3.09453C23.1934 2.11578 22.1219 1.33383 20.9234 0.800479C19.7248 0.267131 18.4266 -0.00543605 17.1148 0.000838336ZM17.1148 2.40611L17.1024 2.41853C18.7309 2.41853 20.2968 2.98223 21.5494 4.02219C21.4992 4.04705 21.3989 4.10963 21.3239 4.14736L13.9585 8.39375C13.5826 8.60681 13.3571 9.00761 13.3571 9.44614V19.417L10.188 17.5883V9.34583C10.1872 7.50727 10.9164 5.74362 12.2152 4.44232C13.514 3.14101 15.2762 2.40893 17.1148 2.40611ZM25.9875 5.30894C27.2081 5.30659 28.4077 5.62652 29.4649 6.23638C30.5222 6.84623 31.3998 7.72441 32.0089 8.78213C32.8105 10.1852 33.111 11.8261 32.8354 13.4169C32.7852 13.3792 32.6853 13.3295 32.6223 13.2917L25.2569 9.03247C25.0716 8.92768 24.8624 8.8726 24.6495 8.8726C24.4366 8.8726 24.2274 8.92768 24.0421 9.03247L15.4113 14.0179V10.36L22.5387 6.23882C23.5867 5.63126 24.7762 5.31039 25.9875 5.3085V5.30894ZM7.77026 9.09505V17.851C7.77026 18.2896 7.99574 18.6779 8.37168 18.9034L16.9896 23.8764L13.8076 25.7175L6.69257 21.6087C5.10252 20.6872 3.94307 19.1725 3.46873 17.397C2.9944 15.6215 3.24394 13.7303 4.16258 12.1386C4.97295 10.7339 6.24925 9.65749 7.77026 9.09505ZM24.28 11.262L31.4075 15.3708C34.7271 17.2873 35.854 21.5213 33.9375 24.8409L33.9499 24.8533C33.1359 26.2564 31.858 27.3336 30.3422 27.8849V19.1285C30.3422 18.6899 30.1167 18.2891 29.7408 18.0765L21.1104 13.0907L24.28 11.262ZM19.0438 14.2811L22.6768 16.3854V20.5817L19.0438 22.686L15.4113 20.5817V16.3854L19.0438 14.2811ZM24.7558 17.5883L27.925 19.417V27.647C27.925 31.4802 24.8184 34.5867 20.9981 34.5867V34.5743C19.382 34.5743 17.8037 34.0106 16.5635 32.9711C16.6137 32.9462 16.7264 32.8832 16.789 32.8455L24.1544 28.5991C24.5303 28.386 24.7682 27.9852 24.7554 27.5467L24.7558 17.5883ZM22.6888 22.9745V26.6319L15.5613 30.7407C12.2417 32.6448 8.00772 31.5174 6.09114 28.2102H6.10357C5.28953 26.8196 5.00103 25.1663 5.27666 23.5755C5.32682 23.6132 5.42713 23.6629 5.48971 23.7006L12.8551 27.9599C13.0404 28.0647 13.2496 28.1198 13.4625 28.1198C13.6754 28.1198 13.8846 28.0647 14.0699 27.9599L22.6888 22.9745Z" fill="#0F0F0F"/>
</g>
<defs>
<clipPath id="clip0_1_1349">
<rect width="150.32" height="36.9907" fill="white" transform="translate(0.802734)"/>
</clipPath>
</defs>
</svg>
