<svg width="146" height="32" viewBox="0 0 146 32" fill="none" xmlns="http://www.w3.org/2000/svg">
<g clip-path="url(#clip0_1_1352)">
<path d="M60.7667 6.21985V24.8796H57.5272V10.2369H57.484L51.696 24.8796H49.5363L43.6188 10.2369H43.5756V24.8796H40.5952V6.21985H45.2601L50.6162 20.0419H50.7026L56.361 6.21985H60.7667ZM63.4448 7.64525C63.4448 7.12692 63.6175 6.69498 64.0063 6.34943C64.395 6.00388 64.827 5.8311 65.3453 5.8311C65.9068 5.8311 66.3819 6.00388 66.7275 6.34943C67.073 6.69498 67.289 7.12692 67.289 7.64525C67.289 8.16357 67.1162 8.59551 66.7275 8.94106C66.3387 9.28661 65.9068 9.45938 65.3453 9.45938C64.7838 9.45938 64.3518 9.28661 64.0063 8.94106C63.6607 8.55232 63.4448 8.12038 63.4448 7.64525ZM66.9434 11.4895V24.8796H63.7903V11.4895H66.9434ZM76.4893 22.5903C76.9644 22.5903 77.4827 22.5039 78.0443 22.2448C78.6058 22.0288 79.1241 21.7264 79.5992 21.3809V24.3181C79.0809 24.6204 78.5194 24.8364 77.8715 24.966C77.2236 25.0955 76.5325 25.1819 75.755 25.1819C73.7681 25.1819 72.1699 24.5772 70.9605 23.3246C69.7079 22.072 69.1031 20.4738 69.1031 18.5733C69.1031 16.4136 69.751 14.6426 71.0037 13.2604C72.2563 11.8782 74.0272 11.1871 76.3597 11.1871C76.9644 11.1871 77.5691 11.2735 78.1306 11.4031C78.7354 11.5327 79.2105 11.7487 79.556 11.9214V14.945C79.0809 14.5994 78.5626 14.2971 78.0875 14.1243C77.5691 13.9515 77.0508 13.822 76.5325 13.822C75.2799 13.822 74.2864 14.2107 73.5089 15.0314C72.7314 15.8521 72.3859 16.9319 72.3859 18.3141C72.3859 19.6531 72.7746 20.733 73.5089 21.4673C74.2432 22.2016 75.2367 22.5903 76.4893 22.5903ZM88.5404 11.2735C88.7995 11.2735 89.0155 11.2735 89.2315 11.3167C89.4474 11.3599 89.6202 11.4031 89.7498 11.4463V14.6426C89.577 14.5131 89.361 14.3835 89.0155 14.2971C88.6699 14.2107 88.3244 14.1243 87.8493 14.1243C87.0718 14.1243 86.4239 14.4699 85.9055 15.1178C85.3872 15.7657 85.0849 16.7591 85.0849 18.1413V24.8796H81.9317V11.4895H85.0849V13.606H85.128C85.4304 12.8717 85.8623 12.3102 86.4239 11.8782C87.0286 11.4895 87.7197 11.2735 88.5404 11.2735ZM89.9226 18.4005C89.9226 16.1976 90.5705 14.4267 91.7799 13.1309C93.0325 11.835 94.7603 11.1871 96.9632 11.1871C99.0365 11.1871 100.678 11.7919 101.844 13.0445C103.01 14.2971 103.615 15.9817 103.615 18.0981C103.615 20.2578 102.967 21.9856 101.758 23.2814C100.505 24.5772 98.8205 25.2251 96.6608 25.2251C94.5875 25.2251 92.9461 24.6204 91.7367 23.411C90.5273 22.1584 89.9226 20.4738 89.9226 18.4005ZM93.2053 18.2709C93.2053 19.6531 93.5076 20.733 94.1556 21.4673C94.8035 22.2016 95.7105 22.5903 96.8768 22.5903C97.9998 22.5903 98.9069 22.2448 99.5116 21.4673C100.116 20.733 100.419 19.6531 100.419 18.1845C100.419 16.7591 100.116 15.6793 99.5116 14.9018C98.9069 14.1675 97.9998 13.7788 96.92 13.7788C95.7537 13.7788 94.8899 14.1675 94.2419 14.945C93.5076 15.7657 93.2053 16.8455 93.2053 18.2709ZM108.323 15.0314C108.323 15.4633 108.453 15.8521 108.755 16.1112C109.057 16.3704 109.662 16.6728 110.656 17.0615C111.908 17.5798 112.815 18.1413 113.29 18.7461C113.809 19.394 114.068 20.1283 114.068 21.0353C114.068 22.288 113.593 23.2814 112.599 24.0589C111.649 24.8364 110.31 25.1819 108.669 25.1819C108.107 25.1819 107.502 25.0955 106.811 24.966C106.12 24.8364 105.559 24.6636 105.084 24.4476V21.3377C105.645 21.7264 106.293 22.072 106.941 22.2879C107.589 22.5039 108.194 22.6335 108.755 22.6335C109.446 22.6335 110.008 22.5471 110.31 22.3311C110.656 22.1152 110.828 21.8128 110.828 21.3377C110.828 20.9057 110.656 20.5602 110.31 20.2146C109.965 19.9123 109.273 19.5667 108.323 19.178C107.157 18.7029 106.336 18.1413 105.861 17.5366C105.386 16.9319 105.127 16.1544 105.127 15.2042C105.127 13.9947 105.602 13.0013 106.552 12.2238C107.502 11.4463 108.755 11.0576 110.267 11.0576C110.742 11.0576 111.26 11.1008 111.822 11.2303C112.383 11.3599 112.902 11.4895 113.29 11.6191V14.6858C112.858 14.4267 112.383 14.1675 111.822 13.9515C111.26 13.7356 110.699 13.6492 110.18 13.6492C109.576 13.6492 109.101 13.7788 108.798 13.9947C108.496 14.2971 108.323 14.5994 108.323 15.0314ZM115.407 18.4005C115.407 16.1976 116.055 14.4267 117.264 13.1309C118.517 11.835 120.245 11.1871 122.448 11.1871C124.521 11.1871 126.162 11.7919 127.328 13.0445C128.495 14.2971 129.099 15.9817 129.099 18.0981C129.099 20.2578 128.451 21.9856 127.242 23.2814C125.989 24.5772 124.305 25.2251 122.145 25.2251C120.072 25.2251 118.43 24.6204 117.221 23.411C116.055 22.1584 115.407 20.4738 115.407 18.4005ZM118.69 18.2709C118.69 19.6531 118.992 20.733 119.64 21.4673C120.288 22.2016 121.195 22.5903 122.361 22.5903C123.484 22.5903 124.391 22.2448 124.996 21.4673C125.601 20.733 125.903 19.6531 125.903 18.1845C125.903 16.7591 125.601 15.6793 124.996 14.9018C124.391 14.1675 123.484 13.7788 122.404 13.7788C121.238 13.7788 120.374 14.1675 119.726 14.945C119.035 15.7657 118.69 16.8455 118.69 18.2709ZM139.595 14.0811H134.887V24.8796H131.691V14.0811H129.445V11.4895H131.691V9.63216C131.691 8.24996 132.166 7.08373 133.073 6.17666C133.98 5.26958 135.146 4.83765 136.572 4.83765C136.961 4.83765 137.306 4.88084 137.609 4.88084C137.911 4.88084 138.17 4.96723 138.386 5.05362V7.77483C138.3 7.73163 138.084 7.64524 137.825 7.55886C137.565 7.47247 137.263 7.42928 136.917 7.42928C136.27 7.42928 135.751 7.64525 135.406 8.03399C135.06 8.42273 134.887 9.07064 134.887 9.84813V11.4463H139.595V8.42273L142.749 7.47247V11.4463H145.945V14.0379H142.749V20.301C142.749 21.1217 142.921 21.6832 143.181 22.0288C143.483 22.3743 143.958 22.5471 144.606 22.5471C144.779 22.5471 144.995 22.5039 145.254 22.4175C145.513 22.3311 145.729 22.2448 145.902 22.1152V24.7068C145.686 24.8364 145.383 24.9228 144.908 25.0092C144.433 25.0955 144.001 25.1387 143.526 25.1387C142.187 25.1387 141.194 24.7932 140.546 24.1021C139.898 23.411 139.552 22.3311 139.552 20.9057L139.595 14.0811Z" fill="#737373"/>
<path d="M14.8948 0H0.122559V14.7723H14.8948V0Z" fill="#F25022"/>
<path d="M31.222 0H16.4497V14.7723H31.222V0Z" fill="#7FBA00"/>
<path d="M14.8948 16.3271H0.122559V31.0994H14.8948V16.3271Z" fill="#00A4EF"/>
<path d="M31.222 16.3271H16.4497V31.0994H31.222V16.3271Z" fill="#FFB900"/>
</g>
<defs>
<clipPath id="clip0_1_1352">
<rect width="145.822" height="31.0996" fill="white" transform="translate(0.122559)"/>
</clipPath>
</defs>
</svg>
