<svg width="133" height="27" viewBox="0 0 133 27" fill="none" xmlns="http://www.w3.org/2000/svg">
<g clip-path="url(#clip0_1_1338)">
<path d="M48.7419 0.845947H53.7754L62.334 16.324L70.8926 0.845947H75.8171V26.2793H71.7104V6.78657L64.2057 20.2844H60.3533L52.8486 6.78657V26.2793H48.7419V0.845947Z" fill="#1C2B33"/>
<path d="M89.0634 26.7335C87.1613 26.7335 85.4896 26.3126 84.0482 25.4709C82.6064 24.6292 81.4828 23.4635 80.6774 21.9738C79.8716 20.4841 79.4688 18.7764 79.469 16.8508C79.469 14.901 79.8627 13.1752 80.6501 11.6733C81.4375 10.1717 82.5308 8.99691 83.93 8.14884C85.3293 7.3013 86.9374 6.87742 88.7545 6.8772C90.5594 6.8772 92.1131 7.30409 93.4155 8.15788C94.7175 9.01191 95.7199 10.2079 96.4227 11.7459C97.1252 13.2841 97.4765 15.0887 97.4767 17.1596V18.2858H83.5393C83.7938 19.8363 84.4207 21.0565 85.4201 21.9464C86.4195 22.8366 87.6824 23.2817 89.2088 23.2816C90.4322 23.2816 91.4862 23.1 92.3706 22.7366C93.2548 22.3733 94.0846 21.8223 94.8601 21.0836L97.0406 23.754C94.8719 25.7405 92.2128 26.7336 89.0634 26.7335ZM92.0617 11.6459C91.2014 10.768 90.0748 10.3289 88.6819 10.3288C87.325 10.3288 86.1892 10.777 85.2747 11.6733C84.3599 12.5695 83.7815 13.7746 83.5393 15.2884H93.5336C93.4123 13.7382 92.9217 12.524 92.0617 11.6459Z" fill="#1C2B33"/>
<path d="M102.456 10.6925H98.6765V7.33164H102.456V1.77271H106.417V7.33164H112.16V10.6925H106.417V19.2126C106.417 20.6295 106.66 21.6408 107.144 22.2464C107.629 22.8522 108.458 23.1549 109.634 23.1547C110.154 23.1547 110.597 23.1335 110.96 23.0911C111.324 23.0489 111.723 22.9914 112.16 22.9185V26.243C111.662 26.3869 111.155 26.4962 110.642 26.5701C110.056 26.6564 109.463 26.6989 108.871 26.6972C104.594 26.6972 102.456 24.3598 102.456 19.685V10.6925Z" fill="#1C2B33"/>
<path d="M132.803 26.2792H128.914V23.6269C128.223 24.6201 127.345 25.3861 126.279 25.9249C125.213 26.4636 124.002 26.7332 122.645 26.7335C120.973 26.7335 119.492 26.3065 118.202 25.4526C116.912 24.5988 115.897 23.424 115.158 21.9284C114.419 20.4326 114.05 18.7219 114.05 16.7963C114.05 14.8585 114.425 13.1448 115.176 11.655C115.927 10.1654 116.966 8.99675 118.293 8.14884C119.619 7.3013 121.143 6.87742 122.863 6.8772C124.159 6.8772 125.322 7.12853 126.352 7.63121C127.368 8.12247 128.247 8.85538 128.914 9.76569V7.33146H132.803V26.2792ZM128.841 13.9623C128.417 12.8844 127.748 12.0335 126.833 11.4097C125.918 10.7861 124.862 10.4742 123.662 10.4742C121.966 10.4742 120.616 11.0434 119.61 12.1818C118.605 13.3203 118.102 14.8584 118.102 16.7963C118.102 18.7463 118.587 20.2905 119.556 21.4288C120.525 22.5673 121.839 23.1365 123.499 23.1364C124.722 23.1364 125.813 22.8215 126.77 22.1917C127.727 21.5622 128.417 20.7144 128.841 19.6484L128.841 13.9623Z" fill="#1C2B33"/>
<path d="M4.3511 17.6409C4.3511 19.1787 4.68872 20.3593 5.12999 21.0736C5.70855 22.0091 6.57148 22.4055 7.45123 22.4055C8.58593 22.4055 9.62398 22.124 11.6244 19.3579C13.227 17.1409 15.1154 14.029 16.386 12.0781L18.5377 8.77285C20.0324 6.4774 21.7625 3.92565 23.7461 2.19601C25.3656 0.784295 27.1124 0 28.8705 0C31.8222 0 34.6337 1.71003 36.7854 4.91722C39.1403 8.42971 40.2834 12.854 40.2834 17.4196C40.2834 20.1338 39.7483 22.1282 38.8377 23.7037C37.958 25.2275 36.2433 26.7499 33.3589 26.7499V22.4055C35.8287 22.4055 36.445 20.1366 36.445 17.5401C36.445 13.8399 35.5821 9.73359 33.6811 6.79951C32.3321 4.71834 30.5838 3.44666 28.6604 3.44666C26.5801 3.44666 24.9061 5.01525 23.0247 7.81208C22.0245 9.29804 20.9976 11.1089 19.8447 13.1523L18.5755 15.4001C16.026 19.9196 15.3802 20.9489 14.1054 22.6478C11.871 25.6225 9.96299 26.7499 7.45123 26.7499C4.47157 26.7499 2.5874 25.46 1.42048 23.5161C0.467886 21.9321 0 19.8537 0 17.4855L4.3511 17.6409Z" fill="#0081FB"/>
<path d="M3.43066 5.22392C5.4255 2.14978 8.30429 0 11.6061 0C13.5183 0 15.4193 0.565813 17.4043 2.18622C19.5757 3.95787 21.8899 6.87515 24.7771 11.6831L25.8124 13.4086C28.3115 17.5709 29.7334 19.7123 30.5655 20.7221C31.6358 22.0189 32.3852 22.4055 33.3589 22.4055C35.8286 22.4055 36.445 20.1366 36.445 17.5401L40.2834 17.4196C40.2834 20.1338 39.7482 22.1282 38.8377 23.7037C37.9579 25.2275 36.2432 26.7499 33.3589 26.7499C31.5657 26.7499 29.9771 26.3605 28.2205 24.7037C26.87 23.4321 25.2912 21.173 24.0767 19.1423L20.4638 13.1088C18.6511 10.0809 16.9883 7.82328 16.0259 6.8009C14.9906 5.7015 13.6598 4.37381 11.5361 4.37381C9.81723 4.37381 8.35752 5.57966 7.13596 7.42415L3.43066 5.22392Z" fill="url(#paint0_linear_1_1338)"/>
<path d="M11.5362 4.37381C9.8173 4.37381 8.35759 5.57966 7.13603 7.42414C5.40875 10.0305 4.3511 13.9127 4.3511 17.6409C4.3511 19.1787 4.68872 20.3593 5.12999 21.0736L1.42048 23.5161C0.467886 21.9321 0 19.8537 0 17.4855C0 13.1789 1.18233 8.6902 3.43073 5.22391C5.42557 2.14978 8.30436 0 11.6062 0L11.5362 4.37381Z" fill="url(#paint1_linear_1_1338)"/>
</g>
<defs>
<linearGradient id="paint0_linear_1_1338" x1="8.54524" y1="16.3861" x2="36.2824" y2="17.7873" gradientUnits="userSpaceOnUse">
<stop stop-color="#0064E1"/>
<stop offset="0.4" stop-color="#0064E1"/>
<stop offset="0.83" stop-color="#0073EE"/>
<stop offset="1" stop-color="#0082FB"/>
</linearGradient>
<linearGradient id="paint1_linear_1_1338" x1="6.30391" y1="19.4672" x2="6.30391" y2="9.24342" gradientUnits="userSpaceOnUse">
<stop stop-color="#0082FB"/>
<stop offset="1" stop-color="#0064E0"/>
</linearGradient>
<clipPath id="clip0_1_1338">
<rect width="132.802" height="26.7499" fill="white"/>
</clipPath>
</defs>
</svg>
