<svg width="125" height="40" viewBox="0 0 125 40" fill="none" xmlns="http://www.w3.org/2000/svg">
<path d="M16.3449 13.65V17.75H26.1449C25.8449 20.05 25.0782 21.7334 23.9115 22.9167C22.4782 24.35 20.2449 25.9167 16.3449 25.9167C10.3115 25.9167 5.59485 21.05 5.59485 15.0167C5.59485 8.98335 10.3115 4.11667 16.3449 4.11667C19.5949 4.11667 21.9782 5.40001 23.7282 7.05001L26.6115 4.16667C24.1782 1.8 20.9115 0 16.3449 0C8.07818 0 1.12817 6.73334 1.12817 15C1.12817 23.2667 8.07818 30 16.3449 30C20.8115 30 24.1782 28.5334 26.8115 25.8C29.5115 23.1 30.3615 19.2834 30.3615 16.2167C30.3615 15.2667 30.2949 14.3834 30.1449 13.65H16.3449Z" fill="#4285F4"/>
<path d="M42.6112 10.3167C37.2612 10.3167 32.8945 14.3833 32.8945 20C32.8945 25.5667 37.2612 29.6833 42.6112 29.6833C47.9612 29.6833 52.3279 25.5833 52.3279 20C52.3279 14.3833 47.9612 10.3167 42.6112 10.3167ZM42.6112 25.8667C39.6779 25.8667 37.1445 23.45 37.1445 20C37.1445 16.5167 39.6779 14.1333 42.6112 14.1333C45.5445 14.1333 48.0779 16.5167 48.0779 20C48.0779 23.45 45.5445 25.8667 42.6112 25.8667Z" fill="#EA4335"/>
<path d="M90.2453 12.4833H90.0953C89.1453 11.35 87.312 10.3167 84.9953 10.3167C80.162 10.3167 75.9453 14.5333 75.9453 20C75.9453 25.4333 80.162 29.6833 84.9953 29.6833C87.312 29.6833 89.1453 28.65 90.0953 27.4833H90.2453V28.8333C90.2453 32.5333 88.262 34.5167 85.0787 34.5167C82.4787 34.5167 80.862 32.65 80.1953 31.0667L76.4953 32.6C77.562 35.1667 80.3787 38.3167 85.0787 38.3167C90.062 38.3167 94.2787 35.3834 94.2787 28.2333V10.8167H90.2453V12.4833ZM85.362 25.8667C82.4287 25.8667 80.1953 23.3667 80.1953 20C80.1953 16.5833 82.4287 14.1333 85.362 14.1333C88.262 14.1333 90.5287 16.6333 90.5287 20.0333C90.5453 23.4167 88.262 25.8667 85.362 25.8667Z" fill="#4285F4"/>
<path d="M64.2782 10.3167C58.9282 10.3167 54.5615 14.3833 54.5615 20C54.5615 25.5667 58.9282 29.6833 64.2782 29.6833C69.6282 29.6833 73.9949 25.5833 73.9949 20C73.9949 14.3833 69.6282 10.3167 64.2782 10.3167ZM64.2782 25.8667C61.3449 25.8667 58.8115 23.45 58.8115 20C58.8115 16.5167 61.3449 14.1333 64.2782 14.1333C67.2115 14.1333 69.7449 16.5167 69.7449 20C69.7449 23.45 67.2115 25.8667 64.2782 25.8667Z" fill="#FBBC05"/>
<path d="M97.6113 0.399902H101.795V29.6833H97.6113V0.399902Z" fill="#34A853"/>
<path d="M114.711 25.8667C112.545 25.8667 111.011 24.8833 110.011 22.9333L122.961 17.5833L122.528 16.4833C121.728 14.3167 119.261 10.3167 114.245 10.3167C109.261 10.3167 105.111 14.2333 105.111 20C105.111 25.4333 109.211 29.6833 114.711 29.6833C119.145 29.6833 121.711 26.9667 122.778 25.4L119.478 23.2C118.378 24.8 116.878 25.8667 114.711 25.8667ZM114.411 13.95C116.128 13.95 117.595 14.8333 118.078 16.0833L109.328 19.7C109.328 15.6333 112.211 13.95 114.411 13.95Z" fill="#EA4335"/>
</svg>
